<mxfile host="Electron" agent="Mozilla/5.0 (Windows NT 10.0; Win64; x64) AppleWebKit/537.36 (KHTML, like Gecko) draw.io/28.0.6 Chrome/138.0.7204.100 Electron/37.2.3 Safari/537.36" version="28.0.6" pages="15">
  <diagram name="Register Account" id="1pqpSfYd-cz9LpAwklKA">
    <mxGraphModel dx="1793" dy="948" grid="1" gridSize="10" guides="1" tooltips="1" connect="1" arrows="1" fold="1" page="1" pageScale="1" pageWidth="850" pageHeight="1100" math="0" shadow="0">
      <root>
        <mxCell id="0" />
        <mxCell id="1" parent="0" />
        <mxCell id="FxDAs1UEsDiS3sZXbJRw-2" value="" style="shape=umlLifeline;perimeter=lifelinePerimeter;whiteSpace=wrap;html=1;container=1;dropTarget=0;collapsible=0;recursiveResize=0;outlineConnect=0;portConstraint=eastwest;newEdgeStyle={&quot;curved&quot;:0,&quot;rounded&quot;:0};participant=umlActor;" parent="1" vertex="1">
          <mxGeometry x="205" y="510" width="20" height="460" as="geometry" />
        </mxCell>
        <mxCell id="FxDAs1UEsDiS3sZXbJRw-3" value="User" style="text;html=1;align=center;verticalAlign=middle;resizable=0;points=[];autosize=1;strokeColor=none;fillColor=none;" parent="1" vertex="1">
          <mxGeometry x="190" y="470" width="50" height="30" as="geometry" />
        </mxCell>
        <mxCell id="FxDAs1UEsDiS3sZXbJRw-4" value="" style="endArrow=block;endFill=1;html=1;edgeStyle=orthogonalEdgeStyle;align=left;verticalAlign=top;rounded=0;" parent="1" edge="1">
          <mxGeometry x="-1" relative="1" as="geometry">
            <mxPoint x="215.5" y="590" as="sourcePoint" />
            <mxPoint x="575" y="590" as="targetPoint" />
            <Array as="points" />
          </mxGeometry>
        </mxCell>
        <mxCell id="FxDAs1UEsDiS3sZXbJRw-5" value="enterRegistrationDetails(username, email, password)" style="edgeLabel;html=1;align=center;verticalAlign=middle;resizable=0;points=[];" parent="FxDAs1UEsDiS3sZXbJRw-4" vertex="1" connectable="0">
          <mxGeometry x="-0.1495" y="-4" relative="1" as="geometry">
            <mxPoint x="31" y="-4" as="offset" />
          </mxGeometry>
        </mxCell>
        <mxCell id="FxDAs1UEsDiS3sZXbJRw-11" value="Confirm Account Created" style="html=1;verticalAlign=bottom;endArrow=open;dashed=1;endSize=8;rounded=0;" parent="1" edge="1">
          <mxGeometry relative="1" as="geometry">
            <mxPoint x="580.5" y="754.5" as="sourcePoint" />
            <mxPoint x="215.5" y="754.5" as="targetPoint" />
            <Array as="points">
              <mxPoint x="391" y="754.5" />
            </Array>
          </mxGeometry>
        </mxCell>
        <mxCell id="1gmR5vEs358kNA3_uDK7-1" value="Send 2FA Code" style="html=1;verticalAlign=bottom;endArrow=open;dashed=1;endSize=8;rounded=0;" parent="1" edge="1">
          <mxGeometry relative="1" as="geometry">
            <mxPoint x="575" y="640" as="sourcePoint" />
            <mxPoint x="210" y="640" as="targetPoint" />
            <Array as="points" />
          </mxGeometry>
        </mxCell>
        <mxCell id="1gmR5vEs358kNA3_uDK7-2" value="" style="endArrow=block;endFill=1;html=1;edgeStyle=orthogonalEdgeStyle;align=left;verticalAlign=top;rounded=0;" parent="1" edge="1">
          <mxGeometry x="-1" relative="1" as="geometry">
            <mxPoint x="215.5" y="689.5" as="sourcePoint" />
            <mxPoint x="575" y="689.5" as="targetPoint" />
            <Array as="points" />
          </mxGeometry>
        </mxCell>
        <mxCell id="1gmR5vEs358kNA3_uDK7-3" value="enterTwoFactorAuthentication()" style="edgeLabel;html=1;align=center;verticalAlign=middle;resizable=0;points=[];" parent="1gmR5vEs358kNA3_uDK7-2" vertex="1" connectable="0">
          <mxGeometry x="-0.1495" y="-4" relative="1" as="geometry">
            <mxPoint x="31" y="-4" as="offset" />
          </mxGeometry>
        </mxCell>
        <mxCell id="2DoRkWzjgAdIb60MlRIz-1" value="Register Account" style="text;html=1;align=center;verticalAlign=middle;resizable=0;points=[];autosize=1;strokeColor=none;fillColor=none;" parent="1" vertex="1">
          <mxGeometry x="305" y="430" width="110" height="20" as="geometry" />
        </mxCell>
        <mxCell id="g9mGQnx3ViLGjgPzRfEB-1" value="aU:User" style="shape=umlLifeline;perimeter=lifelinePerimeter;whiteSpace=wrap;html=1;container=1;dropTarget=0;collapsible=0;recursiveResize=0;outlineConnect=0;portConstraint=eastwest;newEdgeStyle={&quot;curved&quot;:0,&quot;rounded&quot;:0};" parent="1" vertex="1">
          <mxGeometry x="530" y="520" width="100" height="470" as="geometry" />
        </mxCell>
        <mxCell id="f3KHhcQ_DRQzSH6LgfAg-1" value="" style="html=1;points=[];perimeter=orthogonalPerimeter;" vertex="1" parent="1">
          <mxGeometry x="575" y="580" width="10" height="30" as="geometry" />
        </mxCell>
        <mxCell id="f3KHhcQ_DRQzSH6LgfAg-2" value="" style="html=1;points=[];perimeter=orthogonalPerimeter;" vertex="1" parent="1">
          <mxGeometry x="575" y="670" width="10" height="40" as="geometry" />
        </mxCell>
      </root>
    </mxGraphModel>
  </diagram>
  <diagram id="uh87EgHbrQ8ZQ8i9jcUo" name="Log In">
    <mxGraphModel dx="1793" dy="948" grid="1" gridSize="10" guides="1" tooltips="1" connect="1" arrows="1" fold="1" page="1" pageScale="1" pageWidth="850" pageHeight="1100" math="0" shadow="0">
      <root>
        <mxCell id="0" />
        <mxCell id="1" parent="0" />
        <mxCell id="J1fjOm7FPgVKY1wQyhdM-1" value="" style="shape=umlLifeline;participant=umlActor;perimeter=lifelinePerimeter;whiteSpace=wrap;html=1;container=1;collapsible=0;recursiveResize=0;verticalAlign=top;spacingTop=36;outlineConnect=0;" parent="1" vertex="1">
          <mxGeometry x="220" y="380" width="20" height="450" as="geometry" />
        </mxCell>
        <mxCell id="N7qdNixGbAc1uDaFdiIj-1" value="User" style="text;html=1;align=center;verticalAlign=middle;resizable=0;points=[];autosize=1;strokeColor=none;fillColor=none;" parent="1" vertex="1">
          <mxGeometry x="205" y="348" width="50" height="30" as="geometry" />
        </mxCell>
        <mxCell id="oaJqhY634ODGI0mnjkI0-1" value="" style="endArrow=block;endFill=1;html=1;edgeStyle=orthogonalEdgeStyle;align=left;verticalAlign=top;rounded=0;" parent="1" edge="1">
          <mxGeometry x="-1" relative="1" as="geometry">
            <mxPoint x="230" y="450" as="sourcePoint" />
            <mxPoint x="589.5" y="450" as="targetPoint" />
            <Array as="points" />
          </mxGeometry>
        </mxCell>
        <mxCell id="oaJqhY634ODGI0mnjkI0-2" value="logIn(userName, password)" style="edgeLabel;html=1;align=center;verticalAlign=middle;resizable=0;points=[];" parent="oaJqhY634ODGI0mnjkI0-1" vertex="1" connectable="0">
          <mxGeometry x="-0.1495" y="-4" relative="1" as="geometry">
            <mxPoint x="31" y="-4" as="offset" />
          </mxGeometry>
        </mxCell>
        <mxCell id="VzkKA3PZpx1zdFq-BIwN-2" value="Show Dashboard" style="html=1;verticalAlign=bottom;endArrow=open;dashed=1;endSize=8;rounded=0;" parent="1" edge="1">
          <mxGeometry relative="1" as="geometry">
            <mxPoint x="595" y="510" as="sourcePoint" />
            <mxPoint x="230" y="510" as="targetPoint" />
            <Array as="points" />
          </mxGeometry>
        </mxCell>
        <mxCell id="juDzpUTd3KjIXRZq1DYE-1" value="Log In" style="text;html=1;align=center;verticalAlign=middle;resizable=0;points=[];autosize=1;strokeColor=none;fillColor=none;" parent="1" vertex="1">
          <mxGeometry x="360" y="340" width="50" height="20" as="geometry" />
        </mxCell>
        <mxCell id="srJ2JD5nTOK4XZE0KF_b-1" value="aU:User" style="shape=umlLifeline;perimeter=lifelinePerimeter;whiteSpace=wrap;html=1;container=1;dropTarget=0;collapsible=0;recursiveResize=0;outlineConnect=0;portConstraint=eastwest;newEdgeStyle={&quot;curved&quot;:0,&quot;rounded&quot;:0};" vertex="1" parent="1">
          <mxGeometry x="540" y="378" width="100" height="470" as="geometry" />
        </mxCell>
        <mxCell id="ZYDH31rYwrEwvESA19WU-1" value="Alt" style="shape=umlFrame;whiteSpace=wrap;html=1;" vertex="1" parent="1">
          <mxGeometry x="230" y="550" width="360" height="117.5" as="geometry" />
        </mxCell>
        <mxCell id="ZYDH31rYwrEwvESA19WU-2" value="" style="endArrow=block;endFill=1;html=1;edgeStyle=orthogonalEdgeStyle;align=left;verticalAlign=top;rounded=0;" edge="1" parent="1">
          <mxGeometry x="-1" relative="1" as="geometry">
            <mxPoint x="230" y="604.5" as="sourcePoint" />
            <mxPoint x="589.5" y="604.5" as="targetPoint" />
            <Array as="points" />
          </mxGeometry>
        </mxCell>
        <mxCell id="ZYDH31rYwrEwvESA19WU-3" value="logOut(userID)" style="edgeLabel;html=1;align=center;verticalAlign=middle;resizable=0;points=[];" vertex="1" connectable="0" parent="ZYDH31rYwrEwvESA19WU-2">
          <mxGeometry x="-0.1495" y="-4" relative="1" as="geometry">
            <mxPoint x="31" y="-4" as="offset" />
          </mxGeometry>
        </mxCell>
        <mxCell id="ZYDH31rYwrEwvESA19WU-5" value="User is Logged Out" style="html=1;verticalAlign=bottom;endArrow=open;dashed=1;endSize=8;rounded=0;" edge="1" parent="1">
          <mxGeometry relative="1" as="geometry">
            <mxPoint x="590" y="640" as="sourcePoint" />
            <mxPoint x="225" y="640" as="targetPoint" />
            <Array as="points" />
          </mxGeometry>
        </mxCell>
        <mxCell id="pM3wRhf70wSfPH9XAJHG-1" value="" style="html=1;points=[];perimeter=orthogonalPerimeter;" vertex="1" parent="1">
          <mxGeometry x="585" y="430" width="10" height="40" as="geometry" />
        </mxCell>
        <mxCell id="pM3wRhf70wSfPH9XAJHG-2" value="" style="html=1;points=[];perimeter=orthogonalPerimeter;" vertex="1" parent="1">
          <mxGeometry x="585" y="588.75" width="10" height="40" as="geometry" />
        </mxCell>
      </root>
    </mxGraphModel>
  </diagram>
  <diagram id="i5IVwLpuvhAJIHxCDDOK" name="Connect Bank Account">
    <mxGraphModel dx="1793" dy="948" grid="1" gridSize="10" guides="1" tooltips="1" connect="1" arrows="1" fold="1" page="1" pageScale="1" pageWidth="850" pageHeight="1100" math="0" shadow="0">
      <root>
        <mxCell id="0" />
        <mxCell id="1" parent="0" />
        <mxCell id="KcyXoarNdVbim__01WrX-1" value="aBank:Bank" style="shape=umlLifeline;perimeter=lifelinePerimeter;whiteSpace=wrap;html=1;container=1;collapsible=0;recursiveResize=0;outlineConnect=0;" parent="1" vertex="1">
          <mxGeometry x="550" y="420" width="100" height="300" as="geometry" />
        </mxCell>
        <mxCell id="UvkmhsKFfqbf2RiK4K1D-6" value="" style="html=1;points=[];perimeter=orthogonalPerimeter;" vertex="1" parent="KcyXoarNdVbim__01WrX-1">
          <mxGeometry x="45" y="40" width="10" height="40" as="geometry" />
        </mxCell>
        <mxCell id="UvkmhsKFfqbf2RiK4K1D-9" value="" style="html=1;points=[];perimeter=orthogonalPerimeter;" vertex="1" parent="KcyXoarNdVbim__01WrX-1">
          <mxGeometry x="45" y="110" width="10" height="40" as="geometry" />
        </mxCell>
        <mxCell id="522Ho5aytyaWJcNF1Unx-1" value="" style="shape=umlLifeline;participant=umlActor;perimeter=lifelinePerimeter;whiteSpace=wrap;html=1;container=1;collapsible=0;recursiveResize=0;verticalAlign=top;spacingTop=36;outlineConnect=0;" parent="1" vertex="1">
          <mxGeometry x="230" y="420" width="20" height="300" as="geometry" />
        </mxCell>
        <mxCell id="DCIxynMOUwX_Ei5-sJFM-3" value="" style="endArrow=block;endFill=1;html=1;edgeStyle=orthogonalEdgeStyle;align=left;verticalAlign=top;rounded=0;" parent="1" edge="1">
          <mxGeometry x="-1" relative="1" as="geometry">
            <mxPoint x="240" y="549" as="sourcePoint" />
            <mxPoint x="599.5" y="549" as="targetPoint" />
            <Array as="points" />
          </mxGeometry>
        </mxCell>
        <mxCell id="DCIxynMOUwX_Ei5-sJFM-4" value="addBank(bankName, bankDetails)" style="edgeLabel;html=1;align=center;verticalAlign=middle;resizable=0;points=[];" parent="DCIxynMOUwX_Ei5-sJFM-3" vertex="1" connectable="0">
          <mxGeometry x="-0.1495" y="-4" relative="1" as="geometry">
            <mxPoint x="31" y="-4" as="offset" />
          </mxGeometry>
        </mxCell>
        <mxCell id="LgQk5Skc2WcmGvNvlmgl-1" value="Show Bank List" style="html=1;verticalAlign=bottom;endArrow=open;dashed=1;endSize=8;rounded=0;" parent="1" edge="1">
          <mxGeometry x="0.0014" relative="1" as="geometry">
            <mxPoint x="600" y="520" as="sourcePoint" />
            <mxPoint x="240" y="520" as="targetPoint" />
            <Array as="points">
              <mxPoint x="415.5" y="520" />
            </Array>
            <mxPoint as="offset" />
          </mxGeometry>
        </mxCell>
        <mxCell id="nQMW1B32F1hX8MCWmwQC-1" value="Confirmation of Bank Linked" style="html=1;verticalAlign=bottom;endArrow=open;dashed=1;endSize=8;rounded=0;" parent="1" edge="1">
          <mxGeometry x="0.0027" relative="1" as="geometry">
            <mxPoint x="600" y="590" as="sourcePoint" />
            <mxPoint x="243" y="590" as="targetPoint" />
            <Array as="points">
              <mxPoint x="418.5" y="590" />
            </Array>
            <mxPoint as="offset" />
          </mxGeometry>
        </mxCell>
        <mxCell id="nQMW1B32F1hX8MCWmwQC-5" value="" style="endArrow=block;endFill=1;html=1;edgeStyle=orthogonalEdgeStyle;align=left;verticalAlign=top;rounded=0;" parent="1" edge="1" target="UvkmhsKFfqbf2RiK4K1D-1">
          <mxGeometry x="-1" relative="1" as="geometry">
            <mxPoint x="240" y="630" as="sourcePoint" />
            <mxPoint x="599.5" y="630" as="targetPoint" />
            <Array as="points">
              <mxPoint x="240" y="631" />
              <mxPoint x="451" y="631" />
              <mxPoint x="451" y="630" />
            </Array>
          </mxGeometry>
        </mxCell>
        <mxCell id="nQMW1B32F1hX8MCWmwQC-6" value="addAccount(bankID, accountNumber, accountType, balance)" style="edgeLabel;html=1;align=center;verticalAlign=middle;resizable=0;points=[];" parent="nQMW1B32F1hX8MCWmwQC-5" vertex="1" connectable="0">
          <mxGeometry x="-0.1495" y="-4" relative="1" as="geometry">
            <mxPoint x="31" y="-4" as="offset" />
          </mxGeometry>
        </mxCell>
        <mxCell id="nQMW1B32F1hX8MCWmwQC-7" value="Bank Account Connected Confirmation" style="html=1;verticalAlign=bottom;endArrow=open;dashed=1;endSize=8;rounded=0;" parent="1" edge="1" source="UvkmhsKFfqbf2RiK4K1D-1">
          <mxGeometry x="0.0014" relative="1" as="geometry">
            <mxPoint x="608" y="690" as="sourcePoint" />
            <mxPoint x="243" y="690" as="targetPoint" />
            <Array as="points">
              <mxPoint x="418.5" y="690" />
            </Array>
            <mxPoint as="offset" />
          </mxGeometry>
        </mxCell>
        <mxCell id="QcB4wQlokHF-zWTIu2q_-1" value="User" style="text;html=1;align=center;verticalAlign=middle;resizable=0;points=[];autosize=1;strokeColor=none;fillColor=none;" parent="1" vertex="1">
          <mxGeometry x="220" y="390" width="40" height="20" as="geometry" />
        </mxCell>
        <mxCell id="oxDyg41iaQ6b-1jz5ssn-1" value="Connect Bank Account" style="text;html=1;align=center;verticalAlign=middle;resizable=0;points=[];autosize=1;strokeColor=none;fillColor=none;" parent="1" vertex="1">
          <mxGeometry x="360" y="360" width="140" height="20" as="geometry" />
        </mxCell>
        <mxCell id="UvkmhsKFfqbf2RiK4K1D-1" value="aAccount: BankAccount" style="shape=umlLifeline;perimeter=lifelinePerimeter;whiteSpace=wrap;html=1;container=1;collapsible=0;recursiveResize=0;outlineConnect=0;" vertex="1" parent="1">
          <mxGeometry x="660" y="460" width="100" height="300" as="geometry" />
        </mxCell>
        <mxCell id="UvkmhsKFfqbf2RiK4K1D-10" value="" style="html=1;points=[];perimeter=orthogonalPerimeter;" vertex="1" parent="UvkmhsKFfqbf2RiK4K1D-1">
          <mxGeometry x="45" y="150" width="10" height="40" as="geometry" />
        </mxCell>
        <mxCell id="UvkmhsKFfqbf2RiK4K1D-2" value="" style="endArrow=block;endFill=1;html=1;edgeStyle=orthogonalEdgeStyle;align=left;verticalAlign=top;rounded=0;" edge="1" parent="1">
          <mxGeometry x="-1" relative="1" as="geometry">
            <mxPoint x="245" y="480" as="sourcePoint" />
            <mxPoint x="590" y="480" as="targetPoint" />
            <Array as="points" />
          </mxGeometry>
        </mxCell>
        <mxCell id="UvkmhsKFfqbf2RiK4K1D-3" value="getBankDetails(bankName)" style="edgeLabel;html=1;align=center;verticalAlign=middle;resizable=0;points=[];" vertex="1" connectable="0" parent="UvkmhsKFfqbf2RiK4K1D-2">
          <mxGeometry x="-0.1495" y="-4" relative="1" as="geometry">
            <mxPoint x="31" y="-4" as="offset" />
          </mxGeometry>
        </mxCell>
      </root>
    </mxGraphModel>
  </diagram>
  <diagram id="peTMQjeKiq0AIDLkKxx9" name="Sync Transaction">
    <mxGraphModel dx="1793" dy="948" grid="1" gridSize="10" guides="1" tooltips="1" connect="1" arrows="1" fold="1" page="1" pageScale="1" pageWidth="850" pageHeight="1100" math="0" shadow="0">
      <root>
        <mxCell id="0" />
        <mxCell id="1" parent="0" />
        <mxCell id="K5MD4WhougbMNWgGFbaG-1" value="" style="shape=umlLifeline;participant=umlActor;perimeter=lifelinePerimeter;whiteSpace=wrap;html=1;container=1;collapsible=0;recursiveResize=0;verticalAlign=top;spacingTop=36;outlineConnect=0;" parent="1" vertex="1">
          <mxGeometry x="190" y="440" width="20" height="370" as="geometry" />
        </mxCell>
        <mxCell id="1xd4soagFU9HnLHUa8Md-1" value="User" style="text;html=1;align=center;verticalAlign=middle;resizable=0;points=[];autosize=1;strokeColor=none;fillColor=none;" parent="1" vertex="1">
          <mxGeometry x="175" y="410" width="50" height="30" as="geometry" />
        </mxCell>
        <mxCell id="qIfcWWj2qbqolz4PFFvk-1" value="" style="endArrow=block;endFill=1;html=1;edgeStyle=orthogonalEdgeStyle;align=left;verticalAlign=top;rounded=0;" parent="1" edge="1">
          <mxGeometry x="-1" relative="1" as="geometry">
            <mxPoint x="200" y="660" as="sourcePoint" />
            <mxPoint x="659.5" y="661" as="targetPoint" />
            <Array as="points">
              <mxPoint x="200" y="661" />
            </Array>
          </mxGeometry>
        </mxCell>
        <mxCell id="qIfcWWj2qbqolz4PFFvk-2" value="getTransactions(accountNumber)" style="edgeLabel;html=1;align=center;verticalAlign=middle;resizable=0;points=[];" parent="qIfcWWj2qbqolz4PFFvk-1" vertex="1" connectable="0">
          <mxGeometry x="-0.1495" y="-4" relative="1" as="geometry">
            <mxPoint x="31" y="-4" as="offset" />
          </mxGeometry>
        </mxCell>
        <mxCell id="qIfcWWj2qbqolz4PFFvk-3" value="List of Account Transactions" style="html=1;verticalAlign=bottom;endArrow=open;dashed=1;endSize=8;rounded=0;" parent="1" edge="1">
          <mxGeometry x="0.0014" relative="1" as="geometry">
            <mxPoint x="659.5" y="700" as="sourcePoint" />
            <mxPoint x="200" y="700" as="targetPoint" />
            <Array as="points">
              <mxPoint x="375.5" y="700" />
            </Array>
            <mxPoint as="offset" />
          </mxGeometry>
        </mxCell>
        <mxCell id="6R3yyRbGY2OsaFflVLCy-1" value="Sync Transaction" style="text;html=1;align=center;verticalAlign=middle;resizable=0;points=[];autosize=1;strokeColor=none;fillColor=none;" parent="1" vertex="1">
          <mxGeometry x="310" y="380" width="110" height="20" as="geometry" />
        </mxCell>
        <mxCell id="xRinJ_wgx2b8b_Sgxhnn-1" value="aAccount: BankAccount" style="shape=umlLifeline;perimeter=lifelinePerimeter;whiteSpace=wrap;html=1;container=1;collapsible=0;recursiveResize=0;outlineConnect=0;" vertex="1" parent="1">
          <mxGeometry x="500" y="440" width="100" height="380" as="geometry" />
        </mxCell>
        <mxCell id="xRinJ_wgx2b8b_Sgxhnn-2" value="" style="html=1;points=[];perimeter=orthogonalPerimeter;" vertex="1" parent="xRinJ_wgx2b8b_Sgxhnn-1">
          <mxGeometry x="45" y="40" width="10" height="40" as="geometry" />
        </mxCell>
        <mxCell id="xRinJ_wgx2b8b_Sgxhnn-3" value="transactions: Transaction" style="shape=umlLifeline;perimeter=lifelinePerimeter;whiteSpace=wrap;html=1;container=1;collapsible=0;recursiveResize=0;outlineConnect=0;" vertex="1" parent="1">
          <mxGeometry x="610" y="490" width="100" height="300" as="geometry" />
        </mxCell>
        <mxCell id="xRinJ_wgx2b8b_Sgxhnn-4" value="" style="html=1;points=[];perimeter=orthogonalPerimeter;" vertex="1" parent="xRinJ_wgx2b8b_Sgxhnn-3">
          <mxGeometry x="45" y="60" width="10" height="160" as="geometry" />
        </mxCell>
        <mxCell id="xRinJ_wgx2b8b_Sgxhnn-5" value="" style="endArrow=block;endFill=1;html=1;edgeStyle=orthogonalEdgeStyle;align=left;verticalAlign=top;rounded=0;" edge="1" parent="1">
          <mxGeometry x="-1" relative="1" as="geometry">
            <mxPoint x="200" y="580" as="sourcePoint" />
            <mxPoint x="659.5" y="580" as="targetPoint" />
            <Array as="points" />
          </mxGeometry>
        </mxCell>
        <mxCell id="xRinJ_wgx2b8b_Sgxhnn-6" value="addTransaction(accountNumber, date, amount, description)" style="edgeLabel;html=1;align=center;verticalAlign=middle;resizable=0;points=[];" vertex="1" connectable="0" parent="xRinJ_wgx2b8b_Sgxhnn-5">
          <mxGeometry x="-0.1495" y="-4" relative="1" as="geometry">
            <mxPoint x="30" y="-3" as="offset" />
          </mxGeometry>
        </mxCell>
        <mxCell id="xRinJ_wgx2b8b_Sgxhnn-7" value="" style="endArrow=block;endFill=1;html=1;edgeStyle=orthogonalEdgeStyle;align=left;verticalAlign=top;rounded=0;" edge="1" parent="1" source="K5MD4WhougbMNWgGFbaG-1">
          <mxGeometry x="-1" relative="1" as="geometry">
            <mxPoint x="210" y="500" as="sourcePoint" />
            <mxPoint x="550" y="500" as="targetPoint" />
            <Array as="points">
              <mxPoint x="385" y="500" />
              <mxPoint x="385" y="501" />
            </Array>
          </mxGeometry>
        </mxCell>
        <mxCell id="xRinJ_wgx2b8b_Sgxhnn-8" value="getAccountDetails(accountNumber)" style="edgeLabel;html=1;align=center;verticalAlign=middle;resizable=0;points=[];" vertex="1" connectable="0" parent="xRinJ_wgx2b8b_Sgxhnn-7">
          <mxGeometry x="-0.1495" y="-4" relative="1" as="geometry">
            <mxPoint x="31" y="-4" as="offset" />
          </mxGeometry>
        </mxCell>
        <mxCell id="xRinJ_wgx2b8b_Sgxhnn-9" value="Account Information" style="html=1;verticalAlign=bottom;endArrow=open;dashed=1;endSize=8;rounded=0;" edge="1" parent="1">
          <mxGeometry x="0.0014" relative="1" as="geometry">
            <mxPoint x="550" y="540" as="sourcePoint" />
            <mxPoint x="199.5" y="540" as="targetPoint" />
            <Array as="points">
              <mxPoint x="385.5" y="540" />
            </Array>
            <mxPoint as="offset" />
          </mxGeometry>
        </mxCell>
        <mxCell id="xRinJ_wgx2b8b_Sgxhnn-10" value="Transaction Added" style="html=1;verticalAlign=bottom;endArrow=open;dashed=1;endSize=8;rounded=0;" edge="1" parent="1">
          <mxGeometry x="0.0014" relative="1" as="geometry">
            <mxPoint x="654.5" y="624.5" as="sourcePoint" />
            <mxPoint x="195" y="624.5" as="targetPoint" />
            <Array as="points">
              <mxPoint x="370.5" y="624.5" />
            </Array>
            <mxPoint as="offset" />
          </mxGeometry>
        </mxCell>
        <mxCell id="xRinJ_wgx2b8b_Sgxhnn-11" value="" style="endArrow=block;endFill=1;html=1;edgeStyle=orthogonalEdgeStyle;align=left;verticalAlign=top;rounded=0;" edge="1" parent="1">
          <mxGeometry x="-1" relative="1" as="geometry">
            <mxPoint x="200" y="740" as="sourcePoint" />
            <mxPoint x="550" y="740" as="targetPoint" />
            <Array as="points">
              <mxPoint x="385" y="740" />
              <mxPoint x="385" y="741" />
            </Array>
          </mxGeometry>
        </mxCell>
        <mxCell id="xRinJ_wgx2b8b_Sgxhnn-12" value="updateBalance(accountNumber, newBalance)&amp;nbsp;" style="edgeLabel;html=1;align=center;verticalAlign=middle;resizable=0;points=[];" vertex="1" connectable="0" parent="xRinJ_wgx2b8b_Sgxhnn-11">
          <mxGeometry x="-0.1495" y="-4" relative="1" as="geometry">
            <mxPoint x="31" y="-4" as="offset" />
          </mxGeometry>
        </mxCell>
        <mxCell id="xRinJ_wgx2b8b_Sgxhnn-13" value="Balance Updated and Transactions Synced" style="html=1;verticalAlign=bottom;endArrow=open;dashed=1;endSize=8;rounded=0;" edge="1" parent="1">
          <mxGeometry x="0.0014" relative="1" as="geometry">
            <mxPoint x="550.5" y="780" as="sourcePoint" />
            <mxPoint x="200" y="780" as="targetPoint" />
            <Array as="points">
              <mxPoint x="386" y="780" />
            </Array>
            <mxPoint as="offset" />
          </mxGeometry>
        </mxCell>
      </root>
    </mxGraphModel>
  </diagram>
  <diagram id="y6f8h4-BZxH0-dwR-Xw2" name="Provide Statements">
    <mxGraphModel dx="1793" dy="948" grid="1" gridSize="10" guides="1" tooltips="1" connect="1" arrows="1" fold="1" page="1" pageScale="1" pageWidth="850" pageHeight="1100" math="0" shadow="0">
      <root>
        <mxCell id="0" />
        <mxCell id="1" parent="0" />
        <mxCell id="27RHtHxHYs9ijt4u62z3-1" value="" style="shape=umlLifeline;participant=umlActor;perimeter=lifelinePerimeter;whiteSpace=wrap;html=1;container=1;collapsible=0;recursiveResize=0;verticalAlign=top;spacingTop=36;outlineConnect=0;" parent="1" vertex="1">
          <mxGeometry x="173" y="370" width="20" height="300" as="geometry" />
        </mxCell>
        <mxCell id="6fdwEbvSgm31NNwG1V2H-1" value="Bank" style="text;html=1;align=center;verticalAlign=middle;resizable=0;points=[];autosize=1;strokeColor=none;fillColor=none;" parent="1" vertex="1">
          <mxGeometry x="158" y="338" width="50" height="30" as="geometry" />
        </mxCell>
        <mxCell id="kw-AP977lO2Qt2iEGrGo-1" value="Provide Statements" style="text;html=1;align=center;verticalAlign=middle;resizable=0;points=[];autosize=1;strokeColor=none;fillColor=none;" parent="1" vertex="1">
          <mxGeometry x="243" y="310" width="120" height="20" as="geometry" />
        </mxCell>
        <mxCell id="c2zmN-ZnCvdKpdVjLNKv-1" value="" style="endArrow=block;endFill=1;html=1;edgeStyle=orthogonalEdgeStyle;align=left;verticalAlign=top;rounded=0;" edge="1" parent="1">
          <mxGeometry x="-1" relative="1" as="geometry">
            <mxPoint x="183" y="540" as="sourcePoint" />
            <mxPoint x="642.5" y="541" as="targetPoint" />
            <Array as="points">
              <mxPoint x="183" y="541" />
            </Array>
          </mxGeometry>
        </mxCell>
        <mxCell id="c2zmN-ZnCvdKpdVjLNKv-2" value="getTransactions(accountNumber)" style="edgeLabel;html=1;align=center;verticalAlign=middle;resizable=0;points=[];" vertex="1" connectable="0" parent="c2zmN-ZnCvdKpdVjLNKv-1">
          <mxGeometry x="-0.1495" y="-4" relative="1" as="geometry">
            <mxPoint x="31" y="-4" as="offset" />
          </mxGeometry>
        </mxCell>
        <mxCell id="c2zmN-ZnCvdKpdVjLNKv-3" value="List of Account Transactions" style="html=1;verticalAlign=bottom;endArrow=open;dashed=1;endSize=8;rounded=0;" edge="1" parent="1">
          <mxGeometry x="0.0014" relative="1" as="geometry">
            <mxPoint x="642.5" y="589.5" as="sourcePoint" />
            <mxPoint x="183" y="589.5" as="targetPoint" />
            <Array as="points">
              <mxPoint x="358.5" y="589.5" />
            </Array>
            <mxPoint as="offset" />
          </mxGeometry>
        </mxCell>
        <mxCell id="c2zmN-ZnCvdKpdVjLNKv-4" value="" style="endArrow=block;endFill=1;html=1;edgeStyle=orthogonalEdgeStyle;align=left;verticalAlign=top;rounded=0;" edge="1" parent="1">
          <mxGeometry x="-1" relative="1" as="geometry">
            <mxPoint x="183" y="440" as="sourcePoint" />
            <mxPoint x="533" y="440" as="targetPoint" />
            <Array as="points">
              <mxPoint x="368" y="440" />
              <mxPoint x="368" y="441" />
            </Array>
          </mxGeometry>
        </mxCell>
        <mxCell id="c2zmN-ZnCvdKpdVjLNKv-5" value="getAccountDetails(accountNumber)" style="edgeLabel;html=1;align=center;verticalAlign=middle;resizable=0;points=[];" vertex="1" connectable="0" parent="c2zmN-ZnCvdKpdVjLNKv-4">
          <mxGeometry x="-0.1495" y="-4" relative="1" as="geometry">
            <mxPoint x="31" y="-4" as="offset" />
          </mxGeometry>
        </mxCell>
        <mxCell id="c2zmN-ZnCvdKpdVjLNKv-6" value="Account Information" style="html=1;verticalAlign=bottom;endArrow=open;dashed=1;endSize=8;rounded=0;" edge="1" parent="1">
          <mxGeometry x="0.0014" relative="1" as="geometry">
            <mxPoint x="533.5" y="490" as="sourcePoint" />
            <mxPoint x="183" y="490" as="targetPoint" />
            <Array as="points">
              <mxPoint x="369" y="490" />
            </Array>
            <mxPoint as="offset" />
          </mxGeometry>
        </mxCell>
        <mxCell id="dkvzSjwxd9mXtx4CxywH-1" value="aAccount: BankAccount" style="shape=umlLifeline;perimeter=lifelinePerimeter;whiteSpace=wrap;html=1;container=1;collapsible=0;recursiveResize=0;outlineConnect=0;" vertex="1" parent="1">
          <mxGeometry x="483" y="390" width="100" height="380" as="geometry" />
        </mxCell>
        <mxCell id="dkvzSjwxd9mXtx4CxywH-2" value="" style="html=1;points=[];perimeter=orthogonalPerimeter;" vertex="1" parent="dkvzSjwxd9mXtx4CxywH-1">
          <mxGeometry x="45" y="40" width="10" height="40" as="geometry" />
        </mxCell>
        <mxCell id="dkvzSjwxd9mXtx4CxywH-3" value="transactions: Transaction" style="shape=umlLifeline;perimeter=lifelinePerimeter;whiteSpace=wrap;html=1;container=1;collapsible=0;recursiveResize=0;outlineConnect=0;" vertex="1" parent="1">
          <mxGeometry x="593" y="440" width="100" height="300" as="geometry" />
        </mxCell>
        <mxCell id="dkvzSjwxd9mXtx4CxywH-4" value="" style="html=1;points=[];perimeter=orthogonalPerimeter;" vertex="1" parent="dkvzSjwxd9mXtx4CxywH-3">
          <mxGeometry x="45" y="60" width="10" height="70" as="geometry" />
        </mxCell>
      </root>
    </mxGraphModel>
  </diagram>
  <diagram id="eclNfc9ZfbcEC3QKp3Fj" name="Track Earnings and Spendings">
    <mxGraphModel dx="1793" dy="948" grid="1" gridSize="10" guides="1" tooltips="1" connect="1" arrows="1" fold="1" page="1" pageScale="1" pageWidth="850" pageHeight="1100" math="0" shadow="0">
      <root>
        <mxCell id="0" />
        <mxCell id="1" parent="0" />
        <mxCell id="qS8W4mdJHPQzK-oQmi4c-1" value="accountTracker: SpendingTracker" style="shape=umlLifeline;perimeter=lifelinePerimeter;whiteSpace=wrap;html=1;container=1;collapsible=0;recursiveResize=0;outlineConnect=0;" parent="1" vertex="1">
          <mxGeometry x="520" y="368" width="100" height="522" as="geometry" />
        </mxCell>
        <mxCell id="eshZVdfJpMCLeb-qC4mu-1" value="" style="shape=umlLifeline;participant=umlActor;perimeter=lifelinePerimeter;whiteSpace=wrap;html=1;container=1;collapsible=0;recursiveResize=0;verticalAlign=top;spacingTop=36;outlineConnect=0;" parent="1" vertex="1">
          <mxGeometry x="200" y="370" width="20" height="520" as="geometry" />
        </mxCell>
        <mxCell id="EkPuNPj9YBVV0HXVsUm_-1" value="User" style="text;html=1;align=center;verticalAlign=middle;resizable=0;points=[];autosize=1;strokeColor=none;fillColor=none;" parent="1" vertex="1">
          <mxGeometry x="185" y="338" width="50" height="30" as="geometry" />
        </mxCell>
        <mxCell id="r23NXeD3flRm4oLqwcIi-1" value="" style="endArrow=block;endFill=1;html=1;edgeStyle=orthogonalEdgeStyle;align=left;verticalAlign=top;rounded=0;" parent="1" edge="1" source="B4OdG-ZC9U1LQCVWVJi9-1">
          <mxGeometry x="-1" relative="1" as="geometry">
            <mxPoint x="210" y="440" as="sourcePoint" />
            <mxPoint x="569.5" y="440" as="targetPoint" />
            <Array as="points" />
          </mxGeometry>
        </mxCell>
        <mxCell id="G3dQ8SsW1Ptd2PF-X1bY-1" value="Show Account Financial Data" style="html=1;verticalAlign=bottom;endArrow=open;dashed=1;endSize=8;rounded=0;" parent="1" edge="1">
          <mxGeometry x="0.0028" relative="1" as="geometry">
            <mxPoint x="565" y="480" as="sourcePoint" />
            <mxPoint x="210" y="480" as="targetPoint" />
            <Array as="points">
              <mxPoint x="375.5" y="480" />
            </Array>
            <mxPoint as="offset" />
          </mxGeometry>
        </mxCell>
        <mxCell id="uFj7fHbJx6c4bZtskCs3-1" value="Track Earnings and Spendings" style="text;html=1;align=center;verticalAlign=middle;resizable=0;points=[];autosize=1;strokeColor=none;fillColor=none;" parent="1" vertex="1">
          <mxGeometry x="260" y="320" width="180" height="20" as="geometry" />
        </mxCell>
        <mxCell id="B4OdG-ZC9U1LQCVWVJi9-2" value="" style="endArrow=block;endFill=1;html=1;edgeStyle=orthogonalEdgeStyle;align=left;verticalAlign=top;rounded=0;" edge="1" parent="1" target="B4OdG-ZC9U1LQCVWVJi9-1">
          <mxGeometry x="-1" relative="1" as="geometry">
            <mxPoint x="210" y="440" as="sourcePoint" />
            <mxPoint x="569.5" y="440" as="targetPoint" />
            <Array as="points" />
          </mxGeometry>
        </mxCell>
        <mxCell id="B4OdG-ZC9U1LQCVWVJi9-3" value="getEarningsAndSpendingsSummary(accountNumber)" style="edgeLabel;html=1;align=center;verticalAlign=middle;resizable=0;points=[];" vertex="1" connectable="0" parent="B4OdG-ZC9U1LQCVWVJi9-2">
          <mxGeometry x="-0.1495" y="-4" relative="1" as="geometry">
            <mxPoint x="31" y="-4" as="offset" />
          </mxGeometry>
        </mxCell>
        <mxCell id="B4OdG-ZC9U1LQCVWVJi9-1" value="" style="html=1;points=[];perimeter=orthogonalPerimeter;" vertex="1" parent="1">
          <mxGeometry x="565" y="410" width="10" height="60" as="geometry" />
        </mxCell>
        <mxCell id="GYj2YIAEEjDtWtzC6k5h-1" value="aReport: ReportAnalysis" style="shape=umlLifeline;perimeter=lifelinePerimeter;whiteSpace=wrap;html=1;container=1;collapsible=0;recursiveResize=0;outlineConnect=0;" vertex="1" parent="1">
          <mxGeometry x="730" y="450" width="95" height="440" as="geometry" />
        </mxCell>
        <mxCell id="GYj2YIAEEjDtWtzC6k5h-6" value="" style="html=1;points=[];perimeter=orthogonalPerimeter;" vertex="1" parent="GYj2YIAEEjDtWtzC6k5h-1">
          <mxGeometry x="42.5" y="280" width="10" height="60" as="geometry" />
        </mxCell>
        <mxCell id="D7JCkc62wn4eKxnt5mS3-1" value="" style="endArrow=block;endFill=1;html=1;edgeStyle=orthogonalEdgeStyle;align=left;verticalAlign=top;rounded=0;" edge="1" parent="1">
          <mxGeometry x="-1" relative="1" as="geometry">
            <mxPoint x="220" y="580" as="sourcePoint" />
            <mxPoint x="679.5" y="581" as="targetPoint" />
            <Array as="points">
              <mxPoint x="210" y="580" />
              <mxPoint x="210" y="581" />
            </Array>
          </mxGeometry>
        </mxCell>
        <mxCell id="D7JCkc62wn4eKxnt5mS3-2" value="getTransactions(accountNumber)" style="edgeLabel;html=1;align=center;verticalAlign=middle;resizable=0;points=[];" vertex="1" connectable="0" parent="D7JCkc62wn4eKxnt5mS3-1">
          <mxGeometry x="-0.1495" y="-4" relative="1" as="geometry">
            <mxPoint x="31" y="-4" as="offset" />
          </mxGeometry>
        </mxCell>
        <mxCell id="D7JCkc62wn4eKxnt5mS3-3" value="List of Account Transactions" style="html=1;verticalAlign=bottom;endArrow=open;dashed=1;endSize=8;rounded=0;" edge="1" parent="1" target="eshZVdfJpMCLeb-qC4mu-1">
          <mxGeometry x="0.0014" relative="1" as="geometry">
            <mxPoint x="679.5" y="620" as="sourcePoint" />
            <mxPoint x="220" y="620" as="targetPoint" />
            <Array as="points">
              <mxPoint x="395.5" y="620" />
            </Array>
            <mxPoint as="offset" />
          </mxGeometry>
        </mxCell>
        <mxCell id="D7JCkc62wn4eKxnt5mS3-4" value="transactions: Transaction" style="shape=umlLifeline;perimeter=lifelinePerimeter;whiteSpace=wrap;html=1;container=1;collapsible=0;recursiveResize=0;outlineConnect=0;" vertex="1" parent="1">
          <mxGeometry x="630" y="410" width="100" height="480" as="geometry" />
        </mxCell>
        <mxCell id="D7JCkc62wn4eKxnt5mS3-5" value="" style="html=1;points=[];perimeter=orthogonalPerimeter;" vertex="1" parent="D7JCkc62wn4eKxnt5mS3-4">
          <mxGeometry x="45" y="150" width="10" height="50" as="geometry" />
        </mxCell>
        <mxCell id="SOTepsA7fZMT6luBk-xi-1" value="Alt" style="shape=umlFrame;whiteSpace=wrap;html=1;pointerEvents=0;" vertex="1" parent="1">
          <mxGeometry x="210" y="690" width="570" height="150" as="geometry" />
        </mxCell>
        <mxCell id="SOTepsA7fZMT6luBk-xi-2" value="" style="endArrow=block;endFill=1;html=1;edgeStyle=orthogonalEdgeStyle;align=left;verticalAlign=top;rounded=0;" edge="1" parent="1" target="GYj2YIAEEjDtWtzC6k5h-1">
          <mxGeometry x="-1" relative="1" as="geometry">
            <mxPoint x="210" y="760" as="sourcePoint" />
            <mxPoint x="452" y="890" as="targetPoint" />
            <Array as="points">
              <mxPoint x="210" y="761" />
              <mxPoint x="416" y="761" />
              <mxPoint x="416" y="760" />
            </Array>
          </mxGeometry>
        </mxCell>
        <mxCell id="SOTepsA7fZMT6luBk-xi-3" value="exportReport(recipientEmail, reportID)" style="edgeLabel;html=1;align=center;verticalAlign=middle;resizable=0;points=[];" vertex="1" connectable="0" parent="SOTepsA7fZMT6luBk-xi-2">
          <mxGeometry x="-0.1495" y="-4" relative="1" as="geometry">
            <mxPoint x="31" y="-4" as="offset" />
          </mxGeometry>
        </mxCell>
        <mxCell id="SOTepsA7fZMT6luBk-xi-4" value="Shares Report to the intended recipient" style="html=1;verticalAlign=bottom;endArrow=open;dashed=1;endSize=8;rounded=0;" edge="1" parent="1" source="GYj2YIAEEjDtWtzC6k5h-1">
          <mxGeometry x="0.0028" relative="1" as="geometry">
            <mxPoint x="447" y="880" as="sourcePoint" />
            <mxPoint x="210" y="800" as="targetPoint" />
            <Array as="points" />
            <mxPoint as="offset" />
          </mxGeometry>
        </mxCell>
      </root>
    </mxGraphModel>
  </diagram>
  <diagram id="ORK8Fzp5yGyvLCTQnJiO" name="Extract Receipt Data">
    <mxGraphModel dx="1793" dy="948" grid="1" gridSize="10" guides="1" tooltips="1" connect="1" arrows="1" fold="1" page="1" pageScale="1" pageWidth="850" pageHeight="1100" math="0" shadow="0">
      <root>
        <mxCell id="0" />
        <mxCell id="1" parent="0" />
        <mxCell id="jH4csHfijqyCnBOFFiC3-1" value="aReceipt: Receipt" style="shape=umlLifeline;perimeter=lifelinePerimeter;whiteSpace=wrap;html=1;container=1;collapsible=0;recursiveResize=0;outlineConnect=0;" parent="1" vertex="1">
          <mxGeometry x="355" y="190" width="100" height="430" as="geometry" />
        </mxCell>
        <mxCell id="8mHPA0MBJMSfEe8OOmq7-1" value="" style="html=1;points=[];perimeter=orthogonalPerimeter;" vertex="1" parent="jH4csHfijqyCnBOFFiC3-1">
          <mxGeometry x="45" y="70" width="10" height="70" as="geometry" />
        </mxCell>
        <mxCell id="l_njW3i3j0D-JKUGmFXc-1" value="" style="shape=umlLifeline;participant=umlActor;perimeter=lifelinePerimeter;whiteSpace=wrap;html=1;container=1;collapsible=0;recursiveResize=0;verticalAlign=top;spacingTop=36;outlineConnect=0;" parent="1" vertex="1">
          <mxGeometry x="35" y="200" width="20" height="410" as="geometry" />
        </mxCell>
        <mxCell id="MudsF536SHSzw8S0Snht-1" value="LLM" style="text;html=1;align=center;verticalAlign=middle;resizable=0;points=[];autosize=1;strokeColor=none;fillColor=none;" parent="1" vertex="1">
          <mxGeometry x="20" y="168" width="50" height="30" as="geometry" />
        </mxCell>
        <mxCell id="L42pbCjt7MNb4UsF14RB-1" value="Returns Receipt ID" style="html=1;verticalAlign=bottom;endArrow=open;dashed=1;endSize=8;rounded=0;" parent="1" edge="1">
          <mxGeometry x="0.0028" relative="1" as="geometry">
            <mxPoint x="400" y="349.5" as="sourcePoint" />
            <mxPoint x="45" y="349.5" as="targetPoint" />
            <Array as="points">
              <mxPoint x="210.5" y="349.5" />
            </Array>
            <mxPoint as="offset" />
          </mxGeometry>
        </mxCell>
        <mxCell id="Osj8SX1pOEDcj6Wv3xRn-1" value="" style="endArrow=block;endFill=1;html=1;edgeStyle=orthogonalEdgeStyle;align=left;verticalAlign=top;rounded=0;" parent="1" edge="1">
          <mxGeometry x="-1" relative="1" as="geometry">
            <mxPoint x="45" y="300" as="sourcePoint" />
            <mxPoint x="404.5" y="300" as="targetPoint" />
            <Array as="points" />
          </mxGeometry>
        </mxCell>
        <mxCell id="Osj8SX1pOEDcj6Wv3xRn-2" value="addReceipt(accountNumber, receiptData)" style="edgeLabel;html=1;align=center;verticalAlign=middle;resizable=0;points=[];" parent="Osj8SX1pOEDcj6Wv3xRn-1" vertex="1" connectable="0">
          <mxGeometry x="-0.1495" y="-4" relative="1" as="geometry">
            <mxPoint x="31" y="-4" as="offset" />
          </mxGeometry>
        </mxCell>
        <mxCell id="Rh0G5TyzrpCI7cTpkGPA-1" value="Extract Receipt Data" style="text;html=1;align=center;verticalAlign=middle;resizable=0;points=[];autosize=1;strokeColor=none;fillColor=none;" parent="1" vertex="1">
          <mxGeometry x="165" y="100" width="130" height="20" as="geometry" />
        </mxCell>
        <mxCell id="TnRIn-rMG3Pg8wA8GABL-1" value="aTransaction: Transaction" style="shape=umlLifeline;perimeter=lifelinePerimeter;whiteSpace=wrap;html=1;container=1;collapsible=0;recursiveResize=0;outlineConnect=0;" vertex="1" parent="1">
          <mxGeometry x="650" y="220" width="100" height="390" as="geometry" />
        </mxCell>
        <mxCell id="8mHPA0MBJMSfEe8OOmq7-2" value="" style="html=1;points=[];perimeter=orthogonalPerimeter;" vertex="1" parent="TnRIn-rMG3Pg8wA8GABL-1">
          <mxGeometry x="45" y="120" width="10" height="70" as="geometry" />
        </mxCell>
        <mxCell id="mz9P9r_cQAP_6t_LXFof-1" value="" style="endArrow=block;endFill=1;html=1;edgeStyle=orthogonalEdgeStyle;align=left;verticalAlign=top;rounded=0;" edge="1" parent="1" source="jH4csHfijqyCnBOFFiC3-1" target="8mHPA0MBJMSfEe8OOmq7-2">
          <mxGeometry x="-1" relative="1" as="geometry">
            <mxPoint x="45" y="390" as="sourcePoint" />
            <mxPoint x="504.5" y="390" as="targetPoint" />
            <Array as="points">
              <mxPoint x="480" y="385" />
              <mxPoint x="480" y="385" />
            </Array>
          </mxGeometry>
        </mxCell>
        <mxCell id="mz9P9r_cQAP_6t_LXFof-2" value="addTransaction(accountNumber, transactionData)" style="edgeLabel;html=1;align=center;verticalAlign=middle;resizable=0;points=[];" vertex="1" connectable="0" parent="mz9P9r_cQAP_6t_LXFof-1">
          <mxGeometry x="-0.1495" y="-4" relative="1" as="geometry">
            <mxPoint x="30" y="-3" as="offset" />
          </mxGeometry>
        </mxCell>
        <mxCell id="mz9P9r_cQAP_6t_LXFof-3" value="Returns Transaction ID" style="html=1;verticalAlign=bottom;endArrow=open;dashed=1;endSize=8;rounded=0;" edge="1" parent="1" source="TnRIn-rMG3Pg8wA8GABL-1" target="jH4csHfijqyCnBOFFiC3-1">
          <mxGeometry x="0.0028" relative="1" as="geometry">
            <mxPoint x="600" y="424.5" as="sourcePoint" />
            <mxPoint x="240.5" y="424.5" as="targetPoint" />
            <Array as="points">
              <mxPoint x="406" y="424.5" />
            </Array>
            <mxPoint as="offset" />
          </mxGeometry>
        </mxCell>
        <mxCell id="mz9P9r_cQAP_6t_LXFof-4" value="aTransactionReport: ReportAnalysis" style="shape=umlLifeline;perimeter=lifelinePerimeter;whiteSpace=wrap;html=1;container=1;collapsible=0;recursiveResize=0;outlineConnect=0;" vertex="1" parent="1">
          <mxGeometry x="740" y="295" width="100" height="415" as="geometry" />
        </mxCell>
        <mxCell id="8mHPA0MBJMSfEe8OOmq7-3" value="" style="html=1;points=[];perimeter=orthogonalPerimeter;" vertex="1" parent="mz9P9r_cQAP_6t_LXFof-4">
          <mxGeometry x="45" y="200" width="10" height="55" as="geometry" />
        </mxCell>
        <mxCell id="P8GJv4MNpR8nHfxFw2Mc-1" value="Alt" style="shape=umlFrame;whiteSpace=wrap;html=1;" parent="mz9P9r_cQAP_6t_LXFof-4" vertex="1">
          <mxGeometry x="-335" y="185" width="385" height="115" as="geometry" />
        </mxCell>
        <mxCell id="LIbN4l7a5Km9c9EiscUe-1" value="" style="endArrow=block;endFill=1;html=1;edgeStyle=orthogonalEdgeStyle;align=left;verticalAlign=top;rounded=0;" edge="1" parent="mz9P9r_cQAP_6t_LXFof-4" target="mz9P9r_cQAP_6t_LXFof-4">
          <mxGeometry x="-1" relative="1" as="geometry">
            <mxPoint x="-335" y="242" as="sourcePoint" />
            <mxPoint x="50" y="245" as="targetPoint" />
            <Array as="points">
              <mxPoint x="-335" y="243" />
            </Array>
          </mxGeometry>
        </mxCell>
        <mxCell id="LIbN4l7a5Km9c9EiscUe-2" value="addReport(transactionID)" style="edgeLabel;html=1;align=center;verticalAlign=middle;resizable=0;points=[];" vertex="1" connectable="0" parent="LIbN4l7a5Km9c9EiscUe-1">
          <mxGeometry x="-0.1495" y="-4" relative="1" as="geometry">
            <mxPoint x="30" y="-3" as="offset" />
          </mxGeometry>
        </mxCell>
        <mxCell id="mz9P9r_cQAP_6t_LXFof-5" value="Returns Report ID" style="html=1;verticalAlign=bottom;endArrow=open;dashed=1;endSize=8;rounded=0;" edge="1" parent="1" source="mz9P9r_cQAP_6t_LXFof-4">
          <mxGeometry x="0.0028" relative="1" as="geometry">
            <mxPoint x="435" y="570" as="sourcePoint" />
            <mxPoint x="400" y="570" as="targetPoint" />
            <Array as="points">
              <mxPoint x="405.5" y="570" />
            </Array>
            <mxPoint as="offset" />
          </mxGeometry>
        </mxCell>
      </root>
    </mxGraphModel>
  </diagram>
  <diagram id="qGeQpvENaUPfa4bPHEcO" name="Track Upcoming Charges">
    <mxGraphModel dx="1793" dy="948" grid="1" gridSize="10" guides="1" tooltips="1" connect="1" arrows="1" fold="1" page="1" pageScale="1" pageWidth="850" pageHeight="1100" math="0" shadow="0">
      <root>
        <mxCell id="0" />
        <mxCell id="1" parent="0" />
        <mxCell id="I2jylJ0lrlqNO6UiCMEU-1" value="aCharge: SpendingTracker" style="shape=umlLifeline;perimeter=lifelinePerimeter;whiteSpace=wrap;html=1;container=1;collapsible=0;recursiveResize=0;outlineConnect=0;" parent="1" vertex="1">
          <mxGeometry x="230" y="290" width="100" height="360" as="geometry" />
        </mxCell>
        <mxCell id="cgjQYyOJwJeBpK5WHuBw-1" value="" style="endArrow=block;endFill=1;html=1;edgeStyle=orthogonalEdgeStyle;align=left;verticalAlign=top;rounded=0;" edge="1" parent="I2jylJ0lrlqNO6UiCMEU-1" target="hnLka84JcpxUj3bf8mrk-1">
          <mxGeometry x="-1" relative="1" as="geometry">
            <mxPoint x="50" y="120" as="sourcePoint" />
            <mxPoint x="375" y="121" as="targetPoint" />
            <Array as="points">
              <mxPoint x="50" y="121" />
            </Array>
          </mxGeometry>
        </mxCell>
        <mxCell id="cgjQYyOJwJeBpK5WHuBw-2" value="getReminders(userID)" style="edgeLabel;html=1;align=center;verticalAlign=middle;resizable=0;points=[];" vertex="1" connectable="0" parent="cgjQYyOJwJeBpK5WHuBw-1">
          <mxGeometry x="-0.1495" y="-4" relative="1" as="geometry">
            <mxPoint x="16" y="-24" as="offset" />
          </mxGeometry>
        </mxCell>
        <mxCell id="hnLka84JcpxUj3bf8mrk-5" value="Returns Upcoming Reminder List" style="html=1;verticalAlign=bottom;endArrow=open;dashed=1;endSize=8;rounded=0;" edge="1" parent="I2jylJ0lrlqNO6UiCMEU-1" source="hnLka84JcpxUj3bf8mrk-1">
          <mxGeometry x="0.0028" relative="1" as="geometry">
            <mxPoint x="251" y="160" as="sourcePoint" />
            <mxPoint x="50" y="160" as="targetPoint" />
            <Array as="points">
              <mxPoint x="215.5" y="160" />
              <mxPoint x="130" y="160" />
            </Array>
            <mxPoint as="offset" />
          </mxGeometry>
        </mxCell>
        <mxCell id="wq6K9iHdOkmxCpAw3hvq-1" value="" style="html=1;points=[];perimeter=orthogonalPerimeter;" vertex="1" parent="I2jylJ0lrlqNO6UiCMEU-1">
          <mxGeometry x="45" y="60" width="10" height="50" as="geometry" />
        </mxCell>
        <mxCell id="hTWy7MgIWuyc21do8HtD-1" value="" style="shape=umlLifeline;participant=umlActor;perimeter=lifelinePerimeter;whiteSpace=wrap;html=1;container=1;collapsible=0;recursiveResize=0;verticalAlign=top;spacingTop=36;outlineConnect=0;" parent="1" vertex="1">
          <mxGeometry x="55" y="300" width="20" height="360" as="geometry" />
        </mxCell>
        <mxCell id="JSNmUN5UIGymLQO6HYCO-1" value="User" style="text;html=1;align=center;verticalAlign=middle;resizable=0;points=[];autosize=1;strokeColor=none;fillColor=none;" parent="1" vertex="1">
          <mxGeometry x="40" y="270" width="50" height="30" as="geometry" />
        </mxCell>
        <mxCell id="LEUnzWckwud5eLbdS3CV-1" value="" style="endArrow=block;endFill=1;html=1;edgeStyle=orthogonalEdgeStyle;align=left;verticalAlign=top;rounded=0;" parent="1" edge="1" target="I2jylJ0lrlqNO6UiCMEU-1">
          <mxGeometry x="-1" relative="1" as="geometry">
            <mxPoint x="65" y="380" as="sourcePoint" />
            <mxPoint x="270" y="381" as="targetPoint" />
            <Array as="points">
              <mxPoint x="65" y="381" />
            </Array>
          </mxGeometry>
        </mxCell>
        <mxCell id="LEUnzWckwud5eLbdS3CV-2" value="getUpcomingCharges(accountNumber)" style="edgeLabel;html=1;align=center;verticalAlign=middle;resizable=0;points=[];" parent="LEUnzWckwud5eLbdS3CV-1" vertex="1" connectable="0">
          <mxGeometry x="-0.1495" y="-4" relative="1" as="geometry">
            <mxPoint x="14" y="-15" as="offset" />
          </mxGeometry>
        </mxCell>
        <mxCell id="9Ccexeol4_1XLiwOQfAS-1" value="Track Upcoming Charges" style="text;html=1;align=center;verticalAlign=middle;resizable=0;points=[];autosize=1;strokeColor=none;fillColor=none;" parent="1" vertex="1">
          <mxGeometry x="340" y="220" width="150" height="20" as="geometry" />
        </mxCell>
        <mxCell id="hnLka84JcpxUj3bf8mrk-1" value="aReminder: Reminder" style="shape=umlLifeline;perimeter=lifelinePerimeter;whiteSpace=wrap;html=1;container=1;collapsible=0;recursiveResize=0;outlineConnect=0;" vertex="1" parent="1">
          <mxGeometry x="440" y="320" width="100" height="320" as="geometry" />
        </mxCell>
        <mxCell id="6yrfN5-tptYActhz8Kq_-1" value="" style="endArrow=block;endFill=1;html=1;edgeStyle=orthogonalEdgeStyle;align=left;verticalAlign=top;rounded=0;" edge="1" parent="hnLka84JcpxUj3bf8mrk-1" target="cgjQYyOJwJeBpK5WHuBw-3">
          <mxGeometry x="-1" relative="1" as="geometry">
            <mxPoint x="50" y="180" as="sourcePoint" />
            <mxPoint x="260" y="181" as="targetPoint" />
            <Array as="points">
              <mxPoint x="50" y="181" />
            </Array>
          </mxGeometry>
        </mxCell>
        <mxCell id="6yrfN5-tptYActhz8Kq_-2" value="getNextBillingDate(subscriptionID, serviceName, monthlyCost)" style="edgeLabel;html=1;align=center;verticalAlign=middle;resizable=0;points=[];" vertex="1" connectable="0" parent="6yrfN5-tptYActhz8Kq_-1">
          <mxGeometry x="-0.1495" y="-4" relative="1" as="geometry">
            <mxPoint x="16" y="-24" as="offset" />
          </mxGeometry>
        </mxCell>
        <mxCell id="6yrfN5-tptYActhz8Kq_-3" value="Returns Upcoming Subscription List" style="html=1;verticalAlign=bottom;endArrow=open;dashed=1;endSize=8;rounded=0;" edge="1" parent="hnLka84JcpxUj3bf8mrk-1" target="I2jylJ0lrlqNO6UiCMEU-1">
          <mxGeometry x="0.0028" relative="1" as="geometry">
            <mxPoint x="206" y="220" as="sourcePoint" />
            <mxPoint x="40" y="220" as="targetPoint" />
            <Array as="points">
              <mxPoint x="205.5" y="220" />
              <mxPoint x="120" y="220" />
            </Array>
            <mxPoint as="offset" />
          </mxGeometry>
        </mxCell>
        <mxCell id="wq6K9iHdOkmxCpAw3hvq-5" value="" style="html=1;points=[];perimeter=orthogonalPerimeter;" vertex="1" parent="hnLka84JcpxUj3bf8mrk-1">
          <mxGeometry x="45" y="70" width="10" height="50" as="geometry" />
        </mxCell>
        <mxCell id="cgjQYyOJwJeBpK5WHuBw-3" value="aSubscription" style="shape=umlLifeline;perimeter=lifelinePerimeter;whiteSpace=wrap;html=1;container=1;collapsible=0;recursiveResize=0;outlineConnect=0;" vertex="1" parent="1">
          <mxGeometry x="600" y="360" width="100" height="300" as="geometry" />
        </mxCell>
        <mxCell id="wq6K9iHdOkmxCpAw3hvq-6" value="" style="html=1;points=[];perimeter=orthogonalPerimeter;" vertex="1" parent="cgjQYyOJwJeBpK5WHuBw-3">
          <mxGeometry x="45" y="132.5" width="10" height="35" as="geometry" />
        </mxCell>
        <mxCell id="6yrfN5-tptYActhz8Kq_-4" value="Returns Upcoming Charges List" style="html=1;verticalAlign=bottom;endArrow=open;dashed=1;endSize=8;rounded=0;" edge="1" parent="1">
          <mxGeometry x="0.0028" relative="1" as="geometry">
            <mxPoint x="280" y="590" as="sourcePoint" />
            <mxPoint x="70" y="590" as="targetPoint" />
            <Array as="points">
              <mxPoint x="235.5" y="590" />
              <mxPoint x="150" y="590" />
            </Array>
            <mxPoint as="offset" />
          </mxGeometry>
        </mxCell>
      </root>
    </mxGraphModel>
  </diagram>
  <diagram id="TltVLPndiwZGIvlRWObg" name="Set Reminders">
    <mxGraphModel dx="1793" dy="948" grid="1" gridSize="10" guides="1" tooltips="1" connect="1" arrows="1" fold="1" page="1" pageScale="1" pageWidth="850" pageHeight="1100" math="0" shadow="0">
      <root>
        <mxCell id="0" />
        <mxCell id="1" parent="0" />
        <mxCell id="7YO_AoYSdpaU2VS_2zgS-1" value="aReminder: Reminder" style="shape=umlLifeline;perimeter=lifelinePerimeter;whiteSpace=wrap;html=1;container=1;collapsible=0;recursiveResize=0;outlineConnect=0;" parent="1" vertex="1">
          <mxGeometry x="510" y="340" width="100" height="480" as="geometry" />
        </mxCell>
        <mxCell id="oFaBsXi_s5ZwbscflYO8-1" value="" style="html=1;points=[];perimeter=orthogonalPerimeter;" vertex="1" parent="7YO_AoYSdpaU2VS_2zgS-1">
          <mxGeometry x="45" y="50" width="10" height="50" as="geometry" />
        </mxCell>
        <mxCell id="oFaBsXi_s5ZwbscflYO8-2" value="" style="html=1;points=[];perimeter=orthogonalPerimeter;" vertex="1" parent="7YO_AoYSdpaU2VS_2zgS-1">
          <mxGeometry x="45" y="185.5" width="10" height="50" as="geometry" />
        </mxCell>
        <mxCell id="oFaBsXi_s5ZwbscflYO8-3" value="" style="html=1;points=[];perimeter=orthogonalPerimeter;" vertex="1" parent="7YO_AoYSdpaU2VS_2zgS-1">
          <mxGeometry x="45" y="350" width="10" height="50" as="geometry" />
        </mxCell>
        <mxCell id="z4Uw32N-NIEY3yhbwt0t-1" value="" style="shape=umlLifeline;participant=umlActor;perimeter=lifelinePerimeter;whiteSpace=wrap;html=1;container=1;collapsible=0;recursiveResize=0;verticalAlign=top;spacingTop=36;outlineConnect=0;" parent="1" vertex="1">
          <mxGeometry x="200" y="340" width="20" height="480" as="geometry" />
        </mxCell>
        <mxCell id="GA2a5-3jkt21r0IolmT7-1" value="User" style="text;html=1;align=center;verticalAlign=middle;resizable=0;points=[];autosize=1;strokeColor=none;fillColor=none;" parent="1" vertex="1">
          <mxGeometry x="185" y="308" width="50" height="30" as="geometry" />
        </mxCell>
        <mxCell id="GA2a5-3jkt21r0IolmT7-2" value="Confirm Remider Set" style="html=1;verticalAlign=bottom;endArrow=open;dashed=1;endSize=8;rounded=0;" parent="1" edge="1">
          <mxGeometry x="0.0028" relative="1" as="geometry">
            <mxPoint x="565" y="460" as="sourcePoint" />
            <mxPoint x="210" y="460" as="targetPoint" />
            <Array as="points">
              <mxPoint x="375.5" y="460" />
            </Array>
            <mxPoint as="offset" />
          </mxGeometry>
        </mxCell>
        <mxCell id="lrNO7X4CCsk3izBVY995-1" value="" style="endArrow=block;endFill=1;html=1;edgeStyle=orthogonalEdgeStyle;align=left;verticalAlign=top;rounded=0;" parent="1" edge="1">
          <mxGeometry x="-1" relative="1" as="geometry">
            <mxPoint x="210" y="410" as="sourcePoint" />
            <mxPoint x="560" y="410" as="targetPoint" />
            <Array as="points" />
          </mxGeometry>
        </mxCell>
        <mxCell id="lrNO7X4CCsk3izBVY995-2" value="addReminder(reminderID, reminderDate, message)" style="edgeLabel;html=1;align=center;verticalAlign=middle;resizable=0;points=[];" parent="lrNO7X4CCsk3izBVY995-1" vertex="1" connectable="0">
          <mxGeometry x="-0.1495" y="-4" relative="1" as="geometry">
            <mxPoint x="31" y="-4" as="offset" />
          </mxGeometry>
        </mxCell>
        <mxCell id="13tfFL1yYIT-lzGeTZ2e-1" value="Set Reminders" style="text;html=1;align=center;verticalAlign=middle;resizable=0;points=[];autosize=1;strokeColor=none;fillColor=none;" parent="1" vertex="1">
          <mxGeometry x="285" y="300" width="90" height="20" as="geometry" />
        </mxCell>
        <mxCell id="ckw41yzHvynPtH9fU6BK-1" value="Alt" style="shape=umlFrame;whiteSpace=wrap;html=1;" vertex="1" parent="1">
          <mxGeometry x="210" y="493" width="350" height="115" as="geometry" />
        </mxCell>
        <mxCell id="ckw41yzHvynPtH9fU6BK-2" value="" style="endArrow=block;endFill=1;html=1;edgeStyle=orthogonalEdgeStyle;align=left;verticalAlign=top;rounded=0;" edge="1" parent="1">
          <mxGeometry x="-1" relative="1" as="geometry">
            <mxPoint x="210" y="550" as="sourcePoint" />
            <mxPoint x="560" y="550" as="targetPoint" />
            <Array as="points" />
          </mxGeometry>
        </mxCell>
        <mxCell id="ckw41yzHvynPtH9fU6BK-3" value="editReminder(reminderID, newDetails)" style="edgeLabel;html=1;align=center;verticalAlign=middle;resizable=0;points=[];" vertex="1" connectable="0" parent="ckw41yzHvynPtH9fU6BK-2">
          <mxGeometry x="-0.1495" y="-4" relative="1" as="geometry">
            <mxPoint x="31" y="-4" as="offset" />
          </mxGeometry>
        </mxCell>
        <mxCell id="ckw41yzHvynPtH9fU6BK-4" value="Confirm New Remider Set" style="html=1;verticalAlign=bottom;endArrow=open;dashed=1;endSize=8;rounded=0;" edge="1" parent="1">
          <mxGeometry x="0.0028" relative="1" as="geometry">
            <mxPoint x="565" y="580" as="sourcePoint" />
            <mxPoint x="210" y="580" as="targetPoint" />
            <Array as="points">
              <mxPoint x="375.5" y="580" />
            </Array>
            <mxPoint as="offset" />
          </mxGeometry>
        </mxCell>
        <mxCell id="ckw41yzHvynPtH9fU6BK-5" value="Alt" style="shape=umlFrame;whiteSpace=wrap;html=1;" vertex="1" parent="1">
          <mxGeometry x="210" y="660" width="350" height="115" as="geometry" />
        </mxCell>
        <mxCell id="ckw41yzHvynPtH9fU6BK-6" value="" style="endArrow=block;endFill=1;html=1;edgeStyle=orthogonalEdgeStyle;align=left;verticalAlign=top;rounded=0;" edge="1" parent="1">
          <mxGeometry x="-1" relative="1" as="geometry">
            <mxPoint x="210" y="717" as="sourcePoint" />
            <mxPoint x="560" y="717" as="targetPoint" />
            <Array as="points" />
          </mxGeometry>
        </mxCell>
        <mxCell id="ckw41yzHvynPtH9fU6BK-7" value="deleteReminder(reminderID)" style="edgeLabel;html=1;align=center;verticalAlign=middle;resizable=0;points=[];" vertex="1" connectable="0" parent="ckw41yzHvynPtH9fU6BK-6">
          <mxGeometry x="-0.1495" y="-4" relative="1" as="geometry">
            <mxPoint x="31" y="-4" as="offset" />
          </mxGeometry>
        </mxCell>
        <mxCell id="ckw41yzHvynPtH9fU6BK-8" value="Confirm Remider Deleted" style="html=1;verticalAlign=bottom;endArrow=open;dashed=1;endSize=8;rounded=0;" edge="1" parent="1">
          <mxGeometry x="0.0028" relative="1" as="geometry">
            <mxPoint x="565" y="747" as="sourcePoint" />
            <mxPoint x="210" y="747" as="targetPoint" />
            <Array as="points">
              <mxPoint x="375.5" y="747" />
            </Array>
            <mxPoint as="offset" />
          </mxGeometry>
        </mxCell>
      </root>
    </mxGraphModel>
  </diagram>
  <diagram id="kMhVxaa2TPdeAQf8-Cb4" name="Send Reminders">
    <mxGraphModel dx="1793" dy="948" grid="1" gridSize="10" guides="1" tooltips="1" connect="1" arrows="1" fold="1" page="1" pageScale="1" pageWidth="850" pageHeight="1100" math="0" shadow="0">
      <root>
        <mxCell id="0" />
        <mxCell id="1" parent="0" />
        <mxCell id="ILHmtIt7YyGYBw-ItzMg-1" value="" style="shape=umlLifeline;participant=umlActor;perimeter=lifelinePerimeter;whiteSpace=wrap;html=1;container=1;collapsible=0;recursiveResize=0;verticalAlign=top;spacingTop=36;outlineConnect=0;" parent="1" vertex="1">
          <mxGeometry x="220" y="360" width="20" height="300" as="geometry" />
        </mxCell>
        <mxCell id="WFM82I4vp33wTVIDU4WU-1" value="Time" style="text;html=1;align=center;verticalAlign=middle;resizable=0;points=[];autosize=1;strokeColor=none;fillColor=none;" parent="1" vertex="1">
          <mxGeometry x="205" y="330" width="50" height="30" as="geometry" />
        </mxCell>
        <mxCell id="WFM82I4vp33wTVIDU4WU-2" value="" style="endArrow=block;endFill=1;html=1;edgeStyle=orthogonalEdgeStyle;align=left;verticalAlign=top;rounded=0;" parent="1" edge="1">
          <mxGeometry x="-1" relative="1" as="geometry">
            <mxPoint x="230" y="430" as="sourcePoint" />
            <mxPoint x="589.5" y="430" as="targetPoint" />
            <Array as="points" />
          </mxGeometry>
        </mxCell>
        <mxCell id="WFM82I4vp33wTVIDU4WU-3" value="getReminders()" style="edgeLabel;html=1;align=center;verticalAlign=middle;resizable=0;points=[];" parent="WFM82I4vp33wTVIDU4WU-2" vertex="1" connectable="0">
          <mxGeometry x="-0.1495" y="-4" relative="1" as="geometry">
            <mxPoint x="31" y="-4" as="offset" />
          </mxGeometry>
        </mxCell>
        <mxCell id="1oyeK3DIXlKkZJ5NZZGF-1" value="Returns due Reminders" style="html=1;verticalAlign=bottom;endArrow=open;dashed=1;endSize=8;rounded=0;" parent="1" edge="1">
          <mxGeometry x="0.0028" relative="1" as="geometry">
            <mxPoint x="585" y="480" as="sourcePoint" />
            <mxPoint x="230" y="480" as="targetPoint" />
            <Array as="points">
              <mxPoint x="395.5" y="480" />
            </Array>
            <mxPoint as="offset" />
          </mxGeometry>
        </mxCell>
        <mxCell id="M6cJAp1l4NJoQUCPK0sL-1" value="Send Reminders" style="text;html=1;align=center;verticalAlign=middle;resizable=0;points=[];autosize=1;strokeColor=none;fillColor=none;" parent="1" vertex="1">
          <mxGeometry x="305" y="320" width="110" height="20" as="geometry" />
        </mxCell>
        <mxCell id="HPeIsEK5Vu_q6iBz5X2b-1" value="aReminder: Reminder" style="shape=umlLifeline;perimeter=lifelinePerimeter;whiteSpace=wrap;html=1;container=1;collapsible=0;recursiveResize=0;outlineConnect=0;" vertex="1" parent="1">
          <mxGeometry x="540" y="350" width="100" height="480" as="geometry" />
        </mxCell>
        <mxCell id="oHKNwauzAczjadj2Pp6x-1" value="" style="html=1;points=[];perimeter=orthogonalPerimeter;" vertex="1" parent="HPeIsEK5Vu_q6iBz5X2b-1">
          <mxGeometry x="45" y="60" width="10" height="50" as="geometry" />
        </mxCell>
        <mxCell id="HPeIsEK5Vu_q6iBz5X2b-2" value="aNotification: Notification" style="shape=umlLifeline;perimeter=lifelinePerimeter;whiteSpace=wrap;html=1;container=1;collapsible=0;recursiveResize=0;outlineConnect=0;" vertex="1" parent="1">
          <mxGeometry x="640" y="390" width="100" height="480" as="geometry" />
        </mxCell>
        <mxCell id="oHKNwauzAczjadj2Pp6x-2" value="" style="html=1;points=[];perimeter=orthogonalPerimeter;" vertex="1" parent="HPeIsEK5Vu_q6iBz5X2b-2">
          <mxGeometry x="45" y="100" width="10" height="50" as="geometry" />
        </mxCell>
        <mxCell id="HPeIsEK5Vu_q6iBz5X2b-3" value="" style="endArrow=block;endFill=1;html=1;edgeStyle=orthogonalEdgeStyle;align=left;verticalAlign=top;rounded=0;" edge="1" parent="1" target="HPeIsEK5Vu_q6iBz5X2b-2">
          <mxGeometry x="-1" relative="1" as="geometry">
            <mxPoint x="230" y="520" as="sourcePoint" />
            <mxPoint x="589.5" y="520" as="targetPoint" />
            <Array as="points">
              <mxPoint x="230" y="521" />
              <mxPoint x="436" y="521" />
              <mxPoint x="436" y="520" />
            </Array>
          </mxGeometry>
        </mxCell>
        <mxCell id="HPeIsEK5Vu_q6iBz5X2b-4" value="*[dueReminders] sendNotification(reminderDetails)" style="edgeLabel;html=1;align=center;verticalAlign=middle;resizable=0;points=[];" vertex="1" connectable="0" parent="HPeIsEK5Vu_q6iBz5X2b-3">
          <mxGeometry x="-0.1495" y="-4" relative="1" as="geometry">
            <mxPoint x="31" y="-4" as="offset" />
          </mxGeometry>
        </mxCell>
        <mxCell id="PnbuGuHHARf4OG2_2laQ-1" value="Confirm Reminders are sent" style="html=1;verticalAlign=bottom;endArrow=open;dashed=1;endSize=8;rounded=0;" edge="1" parent="1" source="HPeIsEK5Vu_q6iBz5X2b-2">
          <mxGeometry x="0.0028" relative="1" as="geometry">
            <mxPoint x="585" y="560" as="sourcePoint" />
            <mxPoint x="230" y="560" as="targetPoint" />
            <Array as="points">
              <mxPoint x="395.5" y="560" />
            </Array>
            <mxPoint as="offset" />
          </mxGeometry>
        </mxCell>
      </root>
    </mxGraphModel>
  </diagram>
  <diagram id="yftPoeKfVIf5Yo_vVTMz" name="Set Savings Plan">
    <mxGraphModel dx="1793" dy="948" grid="1" gridSize="10" guides="1" tooltips="1" connect="1" arrows="1" fold="1" page="1" pageScale="1" pageWidth="850" pageHeight="1100" math="0" shadow="0">
      <root>
        <mxCell id="0" />
        <mxCell id="1" parent="0" />
        <mxCell id="P0AslgzhgZhaWATD9cb1-1" value="aPlan: SavingsPlan" style="shape=umlLifeline;perimeter=lifelinePerimeter;whiteSpace=wrap;html=1;container=1;collapsible=0;recursiveResize=0;outlineConnect=0;" parent="1" vertex="1">
          <mxGeometry x="520" y="348" width="100" height="572" as="geometry" />
        </mxCell>
        <mxCell id="c5ws7PUsbS3ece2JZhEj-1" value="" style="html=1;points=[];perimeter=orthogonalPerimeter;" vertex="1" parent="P0AslgzhgZhaWATD9cb1-1">
          <mxGeometry x="45" y="52" width="10" height="50" as="geometry" />
        </mxCell>
        <mxCell id="c5ws7PUsbS3ece2JZhEj-2" value="" style="html=1;points=[];perimeter=orthogonalPerimeter;" vertex="1" parent="P0AslgzhgZhaWATD9cb1-1">
          <mxGeometry x="45" y="192" width="10" height="50" as="geometry" />
        </mxCell>
        <mxCell id="c5ws7PUsbS3ece2JZhEj-3" value="" style="html=1;points=[];perimeter=orthogonalPerimeter;" vertex="1" parent="P0AslgzhgZhaWATD9cb1-1">
          <mxGeometry x="45" y="342" width="10" height="50" as="geometry" />
        </mxCell>
        <mxCell id="c5ws7PUsbS3ece2JZhEj-6" value="" style="html=1;points=[];perimeter=orthogonalPerimeter;" vertex="1" parent="P0AslgzhgZhaWATD9cb1-1">
          <mxGeometry x="45" y="474.5" width="10" height="50" as="geometry" />
        </mxCell>
        <mxCell id="4zcaCk53fkjnVjRvOccZ-1" value="" style="shape=umlLifeline;participant=umlActor;perimeter=lifelinePerimeter;whiteSpace=wrap;html=1;container=1;collapsible=0;recursiveResize=0;verticalAlign=top;spacingTop=36;outlineConnect=0;" parent="1" vertex="1">
          <mxGeometry x="200" y="350" width="20" height="570" as="geometry" />
        </mxCell>
        <mxCell id="CJv0tXt_4GkGGsHEieep-1" value="User" style="text;html=1;align=center;verticalAlign=middle;resizable=0;points=[];autosize=1;strokeColor=none;fillColor=none;" parent="1" vertex="1">
          <mxGeometry x="185" y="318" width="50" height="30" as="geometry" />
        </mxCell>
        <mxCell id="CJv0tXt_4GkGGsHEieep-2" value="Confirm Plan Created" style="html=1;verticalAlign=bottom;endArrow=open;dashed=1;endSize=8;rounded=0;" parent="1" edge="1">
          <mxGeometry x="0.0028" relative="1" as="geometry">
            <mxPoint x="565" y="470" as="sourcePoint" />
            <mxPoint x="210" y="470" as="targetPoint" />
            <Array as="points" />
            <mxPoint as="offset" />
          </mxGeometry>
        </mxCell>
        <mxCell id="V5VTJjKD6IBjeE9QFhlU-1" value="" style="endArrow=block;endFill=1;html=1;edgeStyle=orthogonalEdgeStyle;align=left;verticalAlign=top;rounded=0;" parent="1" edge="1">
          <mxGeometry x="-1" relative="1" as="geometry">
            <mxPoint x="210" y="420" as="sourcePoint" />
            <mxPoint x="569.5" y="420" as="targetPoint" />
            <Array as="points" />
          </mxGeometry>
        </mxCell>
        <mxCell id="V5VTJjKD6IBjeE9QFhlU-2" value="setSavingsPlan(goalAmount, targetDate)" style="edgeLabel;html=1;align=center;verticalAlign=middle;resizable=0;points=[];" parent="V5VTJjKD6IBjeE9QFhlU-1" vertex="1" connectable="0">
          <mxGeometry x="-0.1495" y="-4" relative="1" as="geometry">
            <mxPoint x="31" y="-4" as="offset" />
          </mxGeometry>
        </mxCell>
        <mxCell id="VkbZ18ZFckIEUGEShQqa-1" value="Set Savings Plan" style="text;html=1;align=center;verticalAlign=middle;resizable=0;points=[];autosize=1;strokeColor=none;fillColor=none;" parent="1" vertex="1">
          <mxGeometry x="305" y="320" width="110" height="20" as="geometry" />
        </mxCell>
        <mxCell id="XmtdEW3T_S3cRquyVx8U-1" value="Alt" style="shape=umlFrame;whiteSpace=wrap;html=1;" vertex="1" parent="1">
          <mxGeometry x="210" y="500" width="360" height="115" as="geometry" />
        </mxCell>
        <mxCell id="XmtdEW3T_S3cRquyVx8U-2" value="" style="endArrow=block;endFill=1;html=1;edgeStyle=orthogonalEdgeStyle;align=left;verticalAlign=top;rounded=0;" edge="1" parent="1" target="P0AslgzhgZhaWATD9cb1-1">
          <mxGeometry x="-1" relative="1" as="geometry">
            <mxPoint x="210" y="557" as="sourcePoint" />
            <mxPoint x="570" y="550" as="targetPoint" />
            <Array as="points">
              <mxPoint x="210" y="558" />
            </Array>
          </mxGeometry>
        </mxCell>
        <mxCell id="XmtdEW3T_S3cRquyVx8U-3" value="updatePlan(planID, newDetails)" style="edgeLabel;html=1;align=center;verticalAlign=middle;resizable=0;points=[];" vertex="1" connectable="0" parent="XmtdEW3T_S3cRquyVx8U-2">
          <mxGeometry x="-0.1495" y="-4" relative="1" as="geometry">
            <mxPoint x="31" y="-4" as="offset" />
          </mxGeometry>
        </mxCell>
        <mxCell id="XmtdEW3T_S3cRquyVx8U-4" value="Confirm New Plan&amp;nbsp;" style="html=1;verticalAlign=bottom;endArrow=open;dashed=1;endSize=8;rounded=0;" edge="1" parent="1">
          <mxGeometry x="0.0028" relative="1" as="geometry">
            <mxPoint x="565" y="587" as="sourcePoint" />
            <mxPoint x="210" y="587" as="targetPoint" />
            <Array as="points">
              <mxPoint x="375.5" y="587" />
            </Array>
            <mxPoint as="offset" />
          </mxGeometry>
        </mxCell>
        <mxCell id="XmtdEW3T_S3cRquyVx8U-5" value="Alt" style="shape=umlFrame;whiteSpace=wrap;html=1;" vertex="1" parent="1">
          <mxGeometry x="210" y="650" width="360" height="115" as="geometry" />
        </mxCell>
        <mxCell id="XmtdEW3T_S3cRquyVx8U-6" value="" style="endArrow=block;endFill=1;html=1;edgeStyle=orthogonalEdgeStyle;align=left;verticalAlign=top;rounded=0;" edge="1" parent="1">
          <mxGeometry x="-1" relative="1" as="geometry">
            <mxPoint x="210" y="707" as="sourcePoint" />
            <mxPoint x="570" y="708" as="targetPoint" />
            <Array as="points">
              <mxPoint x="210" y="708" />
            </Array>
          </mxGeometry>
        </mxCell>
        <mxCell id="XmtdEW3T_S3cRquyVx8U-7" value="deletePlan(planID)" style="edgeLabel;html=1;align=center;verticalAlign=middle;resizable=0;points=[];" vertex="1" connectable="0" parent="XmtdEW3T_S3cRquyVx8U-6">
          <mxGeometry x="-0.1495" y="-4" relative="1" as="geometry">
            <mxPoint x="31" y="-4" as="offset" />
          </mxGeometry>
        </mxCell>
        <mxCell id="XmtdEW3T_S3cRquyVx8U-8" value="Confirm Plan Deleted" style="html=1;verticalAlign=bottom;endArrow=open;dashed=1;endSize=8;rounded=0;" edge="1" parent="1">
          <mxGeometry x="0.0028" relative="1" as="geometry">
            <mxPoint x="565" y="737" as="sourcePoint" />
            <mxPoint x="210" y="737" as="targetPoint" />
            <Array as="points">
              <mxPoint x="375.5" y="737" />
            </Array>
            <mxPoint as="offset" />
          </mxGeometry>
        </mxCell>
        <mxCell id="kAqCcG5tV1u5a6wuCJrJ-1" value="Alt" style="shape=umlFrame;whiteSpace=wrap;html=1;" vertex="1" parent="1">
          <mxGeometry x="210" y="790" width="360" height="115" as="geometry" />
        </mxCell>
        <mxCell id="kAqCcG5tV1u5a6wuCJrJ-2" value="" style="endArrow=block;endFill=1;html=1;edgeStyle=orthogonalEdgeStyle;align=left;verticalAlign=top;rounded=0;" edge="1" parent="1">
          <mxGeometry x="-1" relative="1" as="geometry">
            <mxPoint x="210" y="847" as="sourcePoint" />
            <mxPoint x="570" y="848" as="targetPoint" />
            <Array as="points">
              <mxPoint x="210" y="848" />
            </Array>
          </mxGeometry>
        </mxCell>
        <mxCell id="kAqCcG5tV1u5a6wuCJrJ-3" value="checkProgress(planID)" style="edgeLabel;html=1;align=center;verticalAlign=middle;resizable=0;points=[];" vertex="1" connectable="0" parent="kAqCcG5tV1u5a6wuCJrJ-2">
          <mxGeometry x="-0.1495" y="-4" relative="1" as="geometry">
            <mxPoint x="31" y="-4" as="offset" />
          </mxGeometry>
        </mxCell>
        <mxCell id="kAqCcG5tV1u5a6wuCJrJ-4" value="Return Progress Data" style="html=1;verticalAlign=bottom;endArrow=open;dashed=1;endSize=8;rounded=0;" edge="1" parent="1">
          <mxGeometry x="0.0028" relative="1" as="geometry">
            <mxPoint x="565" y="877" as="sourcePoint" />
            <mxPoint x="210" y="877" as="targetPoint" />
            <Array as="points">
              <mxPoint x="375.5" y="877" />
            </Array>
            <mxPoint as="offset" />
          </mxGeometry>
        </mxCell>
      </root>
    </mxGraphModel>
  </diagram>
  <diagram id="kmg5Ou6d163yGmqxVSuz" name="View/Edit Calendar">
    <mxGraphModel dx="1793" dy="948" grid="1" gridSize="10" guides="1" tooltips="1" connect="1" arrows="1" fold="1" page="1" pageScale="1" pageWidth="850" pageHeight="1100" math="0" shadow="0">
      <root>
        <mxCell id="0" />
        <mxCell id="1" parent="0" />
        <mxCell id="pT6_1HRY6UkpXBg_0zDM-1" value="anEvent: CalendarEvent" style="shape=umlLifeline;perimeter=lifelinePerimeter;whiteSpace=wrap;html=1;container=1;collapsible=0;recursiveResize=0;outlineConnect=0;" parent="1" vertex="1">
          <mxGeometry x="615" y="180" width="100" height="860" as="geometry" />
        </mxCell>
        <mxCell id="SV-6Kx0or7ZjB6atTxsX-1" value="" style="html=1;points=[];perimeter=orthogonalPerimeter;" vertex="1" parent="pT6_1HRY6UkpXBg_0zDM-1">
          <mxGeometry x="45" y="70" width="10" height="50" as="geometry" />
        </mxCell>
        <mxCell id="SV-6Kx0or7ZjB6atTxsX-2" value="" style="html=1;points=[];perimeter=orthogonalPerimeter;" vertex="1" parent="pT6_1HRY6UkpXBg_0zDM-1">
          <mxGeometry x="45" y="198" width="10" height="50" as="geometry" />
        </mxCell>
        <mxCell id="SV-6Kx0or7ZjB6atTxsX-3" value="" style="html=1;points=[];perimeter=orthogonalPerimeter;" vertex="1" parent="pT6_1HRY6UkpXBg_0zDM-1">
          <mxGeometry x="45" y="380" width="10" height="50" as="geometry" />
        </mxCell>
        <mxCell id="SV-6Kx0or7ZjB6atTxsX-4" value="" style="html=1;points=[];perimeter=orthogonalPerimeter;" vertex="1" parent="pT6_1HRY6UkpXBg_0zDM-1">
          <mxGeometry x="45" y="540" width="10" height="50" as="geometry" />
        </mxCell>
        <mxCell id="SV-6Kx0or7ZjB6atTxsX-7" value="" style="html=1;points=[];perimeter=orthogonalPerimeter;" vertex="1" parent="pT6_1HRY6UkpXBg_0zDM-1">
          <mxGeometry x="45" y="700" width="10" height="50" as="geometry" />
        </mxCell>
        <mxCell id="ndjDS0_XLAaJoMDNYWTC-1" value="" style="shape=umlLifeline;participant=umlActor;perimeter=lifelinePerimeter;whiteSpace=wrap;html=1;container=1;collapsible=0;recursiveResize=0;verticalAlign=top;spacingTop=36;outlineConnect=0;" parent="1" vertex="1">
          <mxGeometry x="175" y="180" width="20" height="860" as="geometry" />
        </mxCell>
        <mxCell id="rtndzHg4sIIt8jvoK5Zm-1" value="" style="endArrow=block;endFill=1;html=1;edgeStyle=orthogonalEdgeStyle;align=left;verticalAlign=top;rounded=0;" parent="1" edge="1">
          <mxGeometry x="-1" relative="1" as="geometry">
            <mxPoint x="185" y="270" as="sourcePoint" />
            <mxPoint x="665" y="271" as="targetPoint" />
            <Array as="points" />
          </mxGeometry>
        </mxCell>
        <mxCell id="rtndzHg4sIIt8jvoK5Zm-2" value="getEvents(recurringTransactions, billDueDates, savingsGoal, dateTime)" style="edgeLabel;html=1;align=center;verticalAlign=middle;resizable=0;points=[];" parent="rtndzHg4sIIt8jvoK5Zm-1" vertex="1" connectable="0">
          <mxGeometry x="-0.1495" y="-4" relative="1" as="geometry">
            <mxPoint x="21" y="-4" as="offset" />
          </mxGeometry>
        </mxCell>
        <mxCell id="rtndzHg4sIIt8jvoK5Zm-3" value="User" style="text;html=1;align=center;verticalAlign=middle;resizable=0;points=[];autosize=1;strokeColor=none;fillColor=none;" parent="1" vertex="1">
          <mxGeometry x="160" y="148" width="50" height="30" as="geometry" />
        </mxCell>
        <mxCell id="lIctfm9NClPicfqGQbtt-1" value="Display Calendar List of Events" style="html=1;verticalAlign=bottom;endArrow=open;dashed=1;endSize=8;rounded=0;" parent="1" source="pT6_1HRY6UkpXBg_0zDM-1" edge="1">
          <mxGeometry x="0.0028" relative="1" as="geometry">
            <mxPoint x="540" y="320" as="sourcePoint" />
            <mxPoint x="185" y="320" as="targetPoint" />
            <Array as="points" />
            <mxPoint as="offset" />
          </mxGeometry>
        </mxCell>
        <mxCell id="4DTtdKKnRzomKxs444Bq-1" value="Opt" style="shape=umlFrame;whiteSpace=wrap;html=1;pointerEvents=0;" parent="1" vertex="1">
          <mxGeometry x="185" y="850" width="480" height="150" as="geometry" />
        </mxCell>
        <mxCell id="4DTtdKKnRzomKxs444Bq-2" value="" style="endArrow=block;endFill=1;html=1;edgeStyle=orthogonalEdgeStyle;align=left;verticalAlign=top;rounded=0;" parent="1" edge="1">
          <mxGeometry x="-1" relative="1" as="geometry">
            <mxPoint x="187" y="910" as="sourcePoint" />
            <mxPoint x="665" y="911" as="targetPoint" />
            <Array as="points" />
          </mxGeometry>
        </mxCell>
        <mxCell id="4DTtdKKnRzomKxs444Bq-3" value="filterCalendarEvents(TransactionCategory, dateTime)" style="edgeLabel;html=1;align=center;verticalAlign=middle;resizable=0;points=[];" parent="4DTtdKKnRzomKxs444Bq-2" vertex="1" connectable="0">
          <mxGeometry x="-0.1495" y="-4" relative="1" as="geometry">
            <mxPoint x="31" y="-4" as="offset" />
          </mxGeometry>
        </mxCell>
        <mxCell id="4DTtdKKnRzomKxs444Bq-4" value="Filter Calendar based on User&#39;s Request" style="html=1;verticalAlign=bottom;endArrow=open;dashed=1;endSize=8;rounded=0;" parent="1" edge="1">
          <mxGeometry x="0.0028" relative="1" as="geometry">
            <mxPoint x="664.5" y="960" as="sourcePoint" />
            <mxPoint x="185" y="960" as="targetPoint" />
            <Array as="points" />
            <mxPoint as="offset" />
          </mxGeometry>
        </mxCell>
        <mxCell id="9id4H-yZD5tiXP-IgbaF-1" value="View/Edit Calendar" style="text;html=1;align=center;verticalAlign=middle;resizable=0;points=[];autosize=1;strokeColor=none;fillColor=none;" parent="1" vertex="1">
          <mxGeometry x="325" y="130" width="120" height="20" as="geometry" />
        </mxCell>
        <mxCell id="yZXRj6OTvPt1A82o0Uyy-1" value="Alt" style="shape=umlFrame;whiteSpace=wrap;html=1;pointerEvents=0;" vertex="1" parent="1">
          <mxGeometry x="185" y="520" width="480" height="150" as="geometry" />
        </mxCell>
        <mxCell id="yZXRj6OTvPt1A82o0Uyy-2" value="[Edit event]" style="text;html=1;align=center;verticalAlign=middle;resizable=0;points=[];autosize=1;strokeColor=none;fillColor=none;" vertex="1" parent="1">
          <mxGeometry x="255" y="530" width="80" height="30" as="geometry" />
        </mxCell>
        <mxCell id="yZXRj6OTvPt1A82o0Uyy-3" value="" style="endArrow=block;endFill=1;html=1;edgeStyle=orthogonalEdgeStyle;align=left;verticalAlign=top;rounded=0;" edge="1" parent="1">
          <mxGeometry x="-1" relative="1" as="geometry">
            <mxPoint x="185" y="580" as="sourcePoint" />
            <mxPoint x="665" y="581" as="targetPoint" />
            <Array as="points" />
          </mxGeometry>
        </mxCell>
        <mxCell id="yZXRj6OTvPt1A82o0Uyy-4" value="editEvent(eventID, updatedEvent)" style="edgeLabel;html=1;align=center;verticalAlign=middle;resizable=0;points=[];" vertex="1" connectable="0" parent="yZXRj6OTvPt1A82o0Uyy-3">
          <mxGeometry x="-0.1495" y="-4" relative="1" as="geometry">
            <mxPoint x="21" y="-4" as="offset" />
          </mxGeometry>
        </mxCell>
        <mxCell id="yZXRj6OTvPt1A82o0Uyy-5" value="Confirm Event Updated" style="html=1;verticalAlign=bottom;endArrow=open;dashed=1;endSize=8;rounded=0;" edge="1" parent="1">
          <mxGeometry x="0.0028" relative="1" as="geometry">
            <mxPoint x="665" y="630" as="sourcePoint" />
            <mxPoint x="185" y="630" as="targetPoint" />
            <Array as="points" />
            <mxPoint as="offset" />
          </mxGeometry>
        </mxCell>
        <mxCell id="yZXRj6OTvPt1A82o0Uyy-6" value="Alt" style="shape=umlFrame;whiteSpace=wrap;html=1;pointerEvents=0;" vertex="1" parent="1">
          <mxGeometry x="185" y="680" width="480" height="150" as="geometry" />
        </mxCell>
        <mxCell id="yZXRj6OTvPt1A82o0Uyy-7" value="" style="endArrow=block;endFill=1;html=1;edgeStyle=orthogonalEdgeStyle;align=left;verticalAlign=top;rounded=0;" edge="1" parent="1">
          <mxGeometry x="-1" relative="1" as="geometry">
            <mxPoint x="185" y="740" as="sourcePoint" />
            <mxPoint x="665" y="741" as="targetPoint" />
            <Array as="points" />
          </mxGeometry>
        </mxCell>
        <mxCell id="yZXRj6OTvPt1A82o0Uyy-8" value="deleteEvent(eventID)" style="edgeLabel;html=1;align=center;verticalAlign=middle;resizable=0;points=[];" vertex="1" connectable="0" parent="yZXRj6OTvPt1A82o0Uyy-7">
          <mxGeometry x="-0.1495" y="-4" relative="1" as="geometry">
            <mxPoint x="21" y="-4" as="offset" />
          </mxGeometry>
        </mxCell>
        <mxCell id="yZXRj6OTvPt1A82o0Uyy-9" value="Confirm Event Deleted" style="html=1;verticalAlign=bottom;endArrow=open;dashed=1;endSize=8;rounded=0;" edge="1" parent="1">
          <mxGeometry x="0.0028" relative="1" as="geometry">
            <mxPoint x="665" y="790" as="sourcePoint" />
            <mxPoint x="185" y="790" as="targetPoint" />
            <Array as="points" />
            <mxPoint as="offset" />
          </mxGeometry>
        </mxCell>
        <mxCell id="yZXRj6OTvPt1A82o0Uyy-10" value="[DeleteEvent]" style="text;html=1;align=center;verticalAlign=middle;resizable=0;points=[];autosize=1;strokeColor=none;fillColor=none;" vertex="1" parent="1">
          <mxGeometry x="250" y="690" width="100" height="30" as="geometry" />
        </mxCell>
        <mxCell id="Dda1v7QEhCIK0rauhakB-1" value="Alt" style="shape=umlFrame;whiteSpace=wrap;html=1;pointerEvents=0;" vertex="1" parent="1">
          <mxGeometry x="185" y="340" width="480" height="150" as="geometry" />
        </mxCell>
        <mxCell id="Dda1v7QEhCIK0rauhakB-2" value="[Add Event]" style="text;html=1;align=center;verticalAlign=middle;resizable=0;points=[];autosize=1;strokeColor=none;fillColor=none;" vertex="1" parent="1">
          <mxGeometry x="235" y="348" width="90" height="30" as="geometry" />
        </mxCell>
        <mxCell id="Dda1v7QEhCIK0rauhakB-3" value="" style="endArrow=block;endFill=1;html=1;edgeStyle=orthogonalEdgeStyle;align=left;verticalAlign=top;rounded=0;" edge="1" parent="1">
          <mxGeometry x="-1" relative="1" as="geometry">
            <mxPoint x="185" y="400" as="sourcePoint" />
            <mxPoint x="665" y="401" as="targetPoint" />
            <Array as="points" />
          </mxGeometry>
        </mxCell>
        <mxCell id="Dda1v7QEhCIK0rauhakB-4" value="addEvent(eventTitle, eventDate, eventDescription)" style="edgeLabel;html=1;align=center;verticalAlign=middle;resizable=0;points=[];" vertex="1" connectable="0" parent="Dda1v7QEhCIK0rauhakB-3">
          <mxGeometry x="-0.1495" y="-4" relative="1" as="geometry">
            <mxPoint x="21" y="-4" as="offset" />
          </mxGeometry>
        </mxCell>
        <mxCell id="Dda1v7QEhCIK0rauhakB-5" value="Adds Event to the Calendar" style="html=1;verticalAlign=bottom;endArrow=open;dashed=1;endSize=8;rounded=0;" edge="1" parent="1">
          <mxGeometry x="0.0028" relative="1" as="geometry">
            <mxPoint x="665" y="440" as="sourcePoint" />
            <mxPoint x="185" y="440" as="targetPoint" />
            <Array as="points" />
            <mxPoint as="offset" />
          </mxGeometry>
        </mxCell>
      </root>
    </mxGraphModel>
  </diagram>
  <diagram id="9R7oXvESDeGrhR8vqerI" name="Manage Notifications">
    <mxGraphModel dx="1793" dy="948" grid="1" gridSize="10" guides="1" tooltips="1" connect="1" arrows="1" fold="1" page="1" pageScale="1" pageWidth="850" pageHeight="1100" math="0" shadow="0">
      <root>
        <mxCell id="0" />
        <mxCell id="1" parent="0" />
        <mxCell id="pYgLh3aSHy7s993zIdcl-1" value="aNotification:&lt;div&gt;Notification&lt;/div&gt;" style="shape=umlLifeline;perimeter=lifelinePerimeter;whiteSpace=wrap;html=1;container=1;collapsible=0;recursiveResize=0;outlineConnect=0;" parent="1" vertex="1">
          <mxGeometry x="543" y="190" width="100" height="610" as="geometry" />
        </mxCell>
        <mxCell id="aXt0MKcAFF0mwF-w36ki-1" value="" style="html=1;points=[];perimeter=orthogonalPerimeter;" vertex="1" parent="pYgLh3aSHy7s993zIdcl-1">
          <mxGeometry x="45" y="100" width="10" height="50" as="geometry" />
        </mxCell>
        <mxCell id="aXt0MKcAFF0mwF-w36ki-3" value="" style="html=1;points=[];perimeter=orthogonalPerimeter;" vertex="1" parent="pYgLh3aSHy7s993zIdcl-1">
          <mxGeometry x="45" y="450" width="10" height="50" as="geometry" />
        </mxCell>
        <mxCell id="qdPtWmRcHuYxK6CZ9cwH-1" value="" style="shape=umlLifeline;participant=umlActor;perimeter=lifelinePerimeter;whiteSpace=wrap;html=1;container=1;collapsible=0;recursiveResize=0;verticalAlign=top;spacingTop=36;outlineConnect=0;" parent="1" vertex="1">
          <mxGeometry x="223" y="190" width="20" height="600" as="geometry" />
        </mxCell>
        <mxCell id="GE9kgjhSfKJUgQAdW0js-1" value="User" style="text;html=1;align=center;verticalAlign=middle;resizable=0;points=[];autosize=1;strokeColor=none;fillColor=none;" parent="1" vertex="1">
          <mxGeometry x="208" y="160" width="50" height="30" as="geometry" />
        </mxCell>
        <mxCell id="rkt0NUIf-PBbyzAnxQO5-1" value="Manage Notifications" style="text;html=1;align=center;verticalAlign=middle;resizable=0;points=[];autosize=1;strokeColor=none;fillColor=none;" parent="1" vertex="1">
          <mxGeometry x="308" y="160" width="130" height="20" as="geometry" />
        </mxCell>
        <mxCell id="17P4TyDyzrejPpINfaXL-2" value="" style="endArrow=block;endFill=1;html=1;edgeStyle=orthogonalEdgeStyle;align=left;verticalAlign=top;rounded=0;" edge="1" parent="1" target="pYgLh3aSHy7s993zIdcl-1">
          <mxGeometry x="-1" relative="1" as="geometry">
            <mxPoint x="233" y="310" as="sourcePoint" />
            <mxPoint x="713" y="311" as="targetPoint" />
            <Array as="points">
              <mxPoint x="233" y="311" />
            </Array>
          </mxGeometry>
        </mxCell>
        <mxCell id="17P4TyDyzrejPpINfaXL-3" value="&lt;div&gt;setNotificationsEnabled(userId, isEnabled: boolean)&lt;/div&gt;" style="edgeLabel;html=1;align=center;verticalAlign=middle;resizable=0;points=[];" vertex="1" connectable="0" parent="17P4TyDyzrejPpINfaXL-2">
          <mxGeometry x="-0.1495" y="-4" relative="1" as="geometry">
            <mxPoint x="21" y="-4" as="offset" />
          </mxGeometry>
        </mxCell>
        <mxCell id="17P4TyDyzrejPpINfaXL-4" value="Confirm Notifications are Enabled" style="html=1;verticalAlign=bottom;endArrow=open;dashed=1;endSize=8;rounded=0;" edge="1" parent="1">
          <mxGeometry x="0.0028" relative="1" as="geometry">
            <mxPoint x="593" y="360" as="sourcePoint" />
            <mxPoint x="233" y="360" as="targetPoint" />
            <Array as="points" />
            <mxPoint as="offset" />
          </mxGeometry>
        </mxCell>
        <mxCell id="17P4TyDyzrejPpINfaXL-5" value="[isEnabled == true]" style="text;html=1;align=center;verticalAlign=middle;resizable=0;points=[];autosize=1;strokeColor=none;fillColor=none;" vertex="1" parent="1">
          <mxGeometry x="293" y="250" width="120" height="30" as="geometry" />
        </mxCell>
        <mxCell id="17P4TyDyzrejPpINfaXL-6" value="Alt" style="shape=umlFrame;whiteSpace=wrap;html=1;pointerEvents=0;" vertex="1" parent="1">
          <mxGeometry x="233" y="430" width="360" height="150" as="geometry" />
        </mxCell>
        <mxCell id="17P4TyDyzrejPpINfaXL-7" value="" style="endArrow=block;endFill=1;html=1;edgeStyle=orthogonalEdgeStyle;align=left;verticalAlign=top;rounded=0;" edge="1" parent="1">
          <mxGeometry x="-1" relative="1" as="geometry">
            <mxPoint x="233" y="490" as="sourcePoint" />
            <mxPoint x="593" y="491" as="targetPoint" />
            <Array as="points">
              <mxPoint x="233" y="491" />
            </Array>
          </mxGeometry>
        </mxCell>
        <mxCell id="17P4TyDyzrejPpINfaXL-8" value="&lt;div&gt;setNotificationsEnabled(userId, isEnabled: boolean)&lt;/div&gt;" style="edgeLabel;html=1;align=center;verticalAlign=middle;resizable=0;points=[];" vertex="1" connectable="0" parent="17P4TyDyzrejPpINfaXL-7">
          <mxGeometry x="-0.1495" y="-4" relative="1" as="geometry">
            <mxPoint x="21" y="-4" as="offset" />
          </mxGeometry>
        </mxCell>
        <mxCell id="17P4TyDyzrejPpINfaXL-9" value="Confirm Notifications are Disabled" style="html=1;verticalAlign=bottom;endArrow=open;dashed=1;endSize=8;rounded=0;" edge="1" parent="1">
          <mxGeometry x="0.0028" relative="1" as="geometry">
            <mxPoint x="593" y="540" as="sourcePoint" />
            <mxPoint x="233" y="540" as="targetPoint" />
            <Array as="points" />
            <mxPoint as="offset" />
          </mxGeometry>
        </mxCell>
        <mxCell id="17P4TyDyzrejPpINfaXL-10" value="[isEnabled == false]" style="text;html=1;align=center;verticalAlign=middle;resizable=0;points=[];autosize=1;strokeColor=none;fillColor=none;" vertex="1" parent="1">
          <mxGeometry x="288" y="430" width="130" height="30" as="geometry" />
        </mxCell>
        <mxCell id="17P4TyDyzrejPpINfaXL-11" value="Alt" style="shape=umlFrame;whiteSpace=wrap;html=1;pointerEvents=0;" vertex="1" parent="1">
          <mxGeometry x="233" y="600" width="360" height="150" as="geometry" />
        </mxCell>
        <mxCell id="17P4TyDyzrejPpINfaXL-12" value="" style="endArrow=block;endFill=1;html=1;edgeStyle=orthogonalEdgeStyle;align=left;verticalAlign=top;rounded=0;" edge="1" parent="1">
          <mxGeometry x="-1" relative="1" as="geometry">
            <mxPoint x="233" y="660" as="sourcePoint" />
            <mxPoint x="593" y="661" as="targetPoint" />
            <Array as="points">
              <mxPoint x="233" y="661" />
            </Array>
          </mxGeometry>
        </mxCell>
        <mxCell id="17P4TyDyzrejPpINfaXL-13" value="&lt;div&gt;updateSettings(userId, newSettings)&lt;/div&gt;" style="edgeLabel;html=1;align=center;verticalAlign=middle;resizable=0;points=[];" vertex="1" connectable="0" parent="17P4TyDyzrejPpINfaXL-12">
          <mxGeometry x="-0.1495" y="-4" relative="1" as="geometry">
            <mxPoint x="21" y="-4" as="offset" />
          </mxGeometry>
        </mxCell>
        <mxCell id="17P4TyDyzrejPpINfaXL-14" value="Confirm Notifications are Updated" style="html=1;verticalAlign=bottom;endArrow=open;dashed=1;endSize=8;rounded=0;" edge="1" parent="1">
          <mxGeometry x="0.0028" relative="1" as="geometry">
            <mxPoint x="593" y="720" as="sourcePoint" />
            <mxPoint x="233" y="720" as="targetPoint" />
            <Array as="points" />
            <mxPoint as="offset" />
          </mxGeometry>
        </mxCell>
        <mxCell id="aXt0MKcAFF0mwF-w36ki-2" value="" style="html=1;points=[];perimeter=orthogonalPerimeter;" vertex="1" parent="1">
          <mxGeometry x="588" y="470" width="10" height="50" as="geometry" />
        </mxCell>
      </root>
    </mxGraphModel>
  </diagram>
  <diagram id="Bc_4tLCgaYo6G4RNkSnn" name="View Analysis/Report">
    <mxGraphModel dx="1793" dy="948" grid="1" gridSize="10" guides="1" tooltips="1" connect="1" arrows="1" fold="1" page="1" pageScale="1" pageWidth="850" pageHeight="1100" math="0" shadow="0">
      <root>
        <mxCell id="0" />
        <mxCell id="1" parent="0" />
        <mxCell id="o4Tf5CQKnenpbFcRjKNS-1" value="aReport: ReportAnalysis" style="shape=umlLifeline;perimeter=lifelinePerimeter;whiteSpace=wrap;html=1;container=1;collapsible=0;recursiveResize=0;outlineConnect=0;" parent="1" vertex="1">
          <mxGeometry x="335" y="180" width="100" height="350" as="geometry" />
        </mxCell>
        <mxCell id="cp03QvbPGftIgf1IRlVb-2" value="" style="endArrow=block;endFill=1;html=1;edgeStyle=orthogonalEdgeStyle;align=left;verticalAlign=top;rounded=0;" edge="1" parent="o4Tf5CQKnenpbFcRjKNS-1" target="cp03QvbPGftIgf1IRlVb-1">
          <mxGeometry x="-1" relative="1" as="geometry">
            <mxPoint x="50" y="120" as="sourcePoint" />
            <mxPoint x="409.5" y="120" as="targetPoint" />
            <Array as="points">
              <mxPoint x="50" y="121" />
              <mxPoint x="123" y="121" />
              <mxPoint x="123" y="120" />
            </Array>
          </mxGeometry>
        </mxCell>
        <mxCell id="cp03QvbPGftIgf1IRlVb-3" value="getTransactions(transactionID, date, amount, description)" style="edgeLabel;html=1;align=center;verticalAlign=middle;resizable=0;points=[];" vertex="1" connectable="0" parent="cp03QvbPGftIgf1IRlVb-2">
          <mxGeometry x="-0.1495" y="-4" relative="1" as="geometry">
            <mxPoint x="31" y="-4" as="offset" />
          </mxGeometry>
        </mxCell>
        <mxCell id="cp03QvbPGftIgf1IRlVb-4" value="Return Transaction List" style="html=1;verticalAlign=bottom;endArrow=open;dashed=1;endSize=8;rounded=0;" edge="1" parent="o4Tf5CQKnenpbFcRjKNS-1">
          <mxGeometry x="0.0028" relative="1" as="geometry">
            <mxPoint x="380" y="174.5" as="sourcePoint" />
            <mxPoint x="55" y="175" as="targetPoint" />
            <Array as="points" />
            <mxPoint as="offset" />
          </mxGeometry>
        </mxCell>
        <mxCell id="MMWbqdBqsTeu-aFUN2KY-1" value="" style="html=1;points=[];perimeter=orthogonalPerimeter;" vertex="1" parent="o4Tf5CQKnenpbFcRjKNS-1">
          <mxGeometry x="45" y="60" width="10" height="50" as="geometry" />
        </mxCell>
        <mxCell id="MMWbqdBqsTeu-aFUN2KY-2" value="" style="html=1;points=[];perimeter=orthogonalPerimeter;" vertex="1" parent="o4Tf5CQKnenpbFcRjKNS-1">
          <mxGeometry x="45" y="250" width="10" height="50" as="geometry" />
        </mxCell>
        <mxCell id="nAJADlihQVUV7yiAVS9q-1" value="" style="shape=umlLifeline;participant=umlActor;perimeter=lifelinePerimeter;whiteSpace=wrap;html=1;container=1;collapsible=0;recursiveResize=0;verticalAlign=top;spacingTop=36;outlineConnect=0;" parent="1" vertex="1">
          <mxGeometry x="15" y="190" width="20" height="340" as="geometry" />
        </mxCell>
        <mxCell id="wgdVDJ88II__mhwSN3-y-1" value="User" style="text;html=1;align=center;verticalAlign=middle;resizable=0;points=[];autosize=1;strokeColor=none;fillColor=none;" parent="1" vertex="1">
          <mxGeometry y="160" width="50" height="30" as="geometry" />
        </mxCell>
        <mxCell id="wgdVDJ88II__mhwSN3-y-2" value="" style="endArrow=block;endFill=1;html=1;edgeStyle=orthogonalEdgeStyle;align=left;verticalAlign=top;rounded=0;" parent="1" edge="1">
          <mxGeometry x="-1" relative="1" as="geometry">
            <mxPoint x="25" y="260" as="sourcePoint" />
            <mxPoint x="384.5" y="260" as="targetPoint" />
            <Array as="points" />
          </mxGeometry>
        </mxCell>
        <mxCell id="wgdVDJ88II__mhwSN3-y-3" value="generateReport(userID, insights)" style="edgeLabel;html=1;align=center;verticalAlign=middle;resizable=0;points=[];" parent="wgdVDJ88II__mhwSN3-y-2" vertex="1" connectable="0">
          <mxGeometry x="-0.1495" y="-4" relative="1" as="geometry">
            <mxPoint x="31" y="-4" as="offset" />
          </mxGeometry>
        </mxCell>
        <mxCell id="PH24dSfuPAzgIPeAYVhl-1" value="Alt" style="shape=umlFrame;whiteSpace=wrap;html=1;pointerEvents=0;" parent="1" vertex="1">
          <mxGeometry x="25" y="530" width="360" height="150" as="geometry" />
        </mxCell>
        <mxCell id="PH24dSfuPAzgIPeAYVhl-2" value="" style="endArrow=block;endFill=1;html=1;edgeStyle=orthogonalEdgeStyle;align=left;verticalAlign=top;rounded=0;" parent="1" edge="1">
          <mxGeometry x="-1" relative="1" as="geometry">
            <mxPoint x="25" y="590" as="sourcePoint" />
            <mxPoint x="384.5" y="590" as="targetPoint" />
            <Array as="points" />
          </mxGeometry>
        </mxCell>
        <mxCell id="PH24dSfuPAzgIPeAYVhl-3" value="exportReport(recipientEmail, reportID)" style="edgeLabel;html=1;align=center;verticalAlign=middle;resizable=0;points=[];" parent="PH24dSfuPAzgIPeAYVhl-2" vertex="1" connectable="0">
          <mxGeometry x="-0.1495" y="-4" relative="1" as="geometry">
            <mxPoint x="31" y="-4" as="offset" />
          </mxGeometry>
        </mxCell>
        <mxCell id="PH24dSfuPAzgIPeAYVhl-4" value="Shares Report to the intended recipient" style="html=1;verticalAlign=bottom;endArrow=open;dashed=1;endSize=8;rounded=0;" parent="1" edge="1">
          <mxGeometry x="0.0028" relative="1" as="geometry">
            <mxPoint x="380" y="640" as="sourcePoint" />
            <mxPoint x="25" y="640" as="targetPoint" />
            <Array as="points" />
            <mxPoint as="offset" />
          </mxGeometry>
        </mxCell>
        <mxCell id="-fzIJD0ZGW5TA3i7laKe-1" value="View Analysis" style="text;html=1;align=center;verticalAlign=middle;resizable=0;points=[];autosize=1;strokeColor=none;fillColor=none;" parent="1" vertex="1">
          <mxGeometry x="120" y="170" width="90" height="20" as="geometry" />
        </mxCell>
        <mxCell id="cp03QvbPGftIgf1IRlVb-1" value="aTransactionList: Transaction" style="shape=umlLifeline;perimeter=lifelinePerimeter;whiteSpace=wrap;html=1;container=1;collapsible=0;recursiveResize=0;outlineConnect=0;" vertex="1" parent="1">
          <mxGeometry x="660" y="220" width="100" height="350" as="geometry" />
        </mxCell>
        <mxCell id="MMWbqdBqsTeu-aFUN2KY-4" value="" style="html=1;points=[];perimeter=orthogonalPerimeter;" vertex="1" parent="cp03QvbPGftIgf1IRlVb-1">
          <mxGeometry x="45" y="60" width="10" height="50" as="geometry" />
        </mxCell>
        <mxCell id="cp03QvbPGftIgf1IRlVb-5" value="Confirm Report Generated" style="html=1;verticalAlign=bottom;endArrow=open;dashed=1;endSize=8;rounded=0;" edge="1" parent="1" target="nAJADlihQVUV7yiAVS9q-1">
          <mxGeometry x="0.0028" relative="1" as="geometry">
            <mxPoint x="385" y="394.5" as="sourcePoint" />
            <mxPoint x="60" y="395" as="targetPoint" />
            <Array as="points" />
            <mxPoint as="offset" />
          </mxGeometry>
        </mxCell>
        <mxCell id="cp03QvbPGftIgf1IRlVb-6" value="" style="endArrow=block;endFill=1;html=1;edgeStyle=orthogonalEdgeStyle;align=left;verticalAlign=top;rounded=0;" edge="1" parent="1">
          <mxGeometry x="-1" relative="1" as="geometry">
            <mxPoint x="25.5" y="450" as="sourcePoint" />
            <mxPoint x="385" y="450" as="targetPoint" />
            <Array as="points" />
          </mxGeometry>
        </mxCell>
        <mxCell id="cp03QvbPGftIgf1IRlVb-7" value="viewReport(reportID)" style="edgeLabel;html=1;align=center;verticalAlign=middle;resizable=0;points=[];" vertex="1" connectable="0" parent="cp03QvbPGftIgf1IRlVb-6">
          <mxGeometry x="-0.1495" y="-4" relative="1" as="geometry">
            <mxPoint x="31" y="-4" as="offset" />
          </mxGeometry>
        </mxCell>
        <mxCell id="cp03QvbPGftIgf1IRlVb-8" value="Return Report Summary" style="html=1;verticalAlign=bottom;endArrow=open;dashed=1;endSize=8;rounded=0;" edge="1" parent="1">
          <mxGeometry x="0.0028" relative="1" as="geometry">
            <mxPoint x="385" y="500" as="sourcePoint" />
            <mxPoint x="25" y="500.5" as="targetPoint" />
            <Array as="points" />
            <mxPoint as="offset" />
          </mxGeometry>
        </mxCell>
        <mxCell id="MMWbqdBqsTeu-aFUN2KY-3" value="" style="html=1;points=[];perimeter=orthogonalPerimeter;" vertex="1" parent="1">
          <mxGeometry x="380" y="570" width="10" height="50" as="geometry" />
        </mxCell>
      </root>
    </mxGraphModel>
  </diagram>
  <diagram id="gNJ2XBIUonvkv3m8-0Bz" name="Cancel Subscriptions">
    <mxGraphModel dx="1793" dy="948" grid="1" gridSize="10" guides="1" tooltips="1" connect="1" arrows="1" fold="1" page="1" pageScale="1" pageWidth="850" pageHeight="1100" math="0" shadow="0">
      <root>
        <mxCell id="0" />
        <mxCell id="1" parent="0" />
        <mxCell id="NOwpFsukzEN_GTWxfXkw-1" value="aSubscription: Subscription" style="shape=umlLifeline;perimeter=lifelinePerimeter;whiteSpace=wrap;html=1;container=1;collapsible=0;recursiveResize=0;outlineConnect=0;" parent="1" vertex="1">
          <mxGeometry x="415" y="380" width="100" height="300" as="geometry" />
        </mxCell>
        <mxCell id="JChQdCJRBVRevaaYqap1-2" value="" style="endArrow=block;endFill=1;html=1;edgeStyle=orthogonalEdgeStyle;align=left;verticalAlign=top;rounded=0;" edge="1" parent="NOwpFsukzEN_GTWxfXkw-1" target="JChQdCJRBVRevaaYqap1-1">
          <mxGeometry x="-1" relative="1" as="geometry">
            <mxPoint x="55" y="110" as="sourcePoint" />
            <mxPoint x="414.5" y="110" as="targetPoint" />
            <Array as="points">
              <mxPoint x="55" y="111" />
            </Array>
          </mxGeometry>
        </mxCell>
        <mxCell id="JChQdCJRBVRevaaYqap1-3" value="removeRecurringCharge(subscriptionID, serviceName)" style="edgeLabel;html=1;align=center;verticalAlign=middle;resizable=0;points=[];" vertex="1" connectable="0" parent="JChQdCJRBVRevaaYqap1-2">
          <mxGeometry x="-0.1495" y="-4" relative="1" as="geometry">
            <mxPoint x="31" y="-4" as="offset" />
          </mxGeometry>
        </mxCell>
        <mxCell id="1WiSskSD4isf2NS1JOtE-1" value="" style="html=1;points=[];perimeter=orthogonalPerimeter;" vertex="1" parent="NOwpFsukzEN_GTWxfXkw-1">
          <mxGeometry x="45" y="50" width="10" height="50" as="geometry" />
        </mxCell>
        <mxCell id="cCGou0kW3pRUITbVrl2Z-1" value="" style="shape=umlLifeline;participant=umlActor;perimeter=lifelinePerimeter;whiteSpace=wrap;html=1;container=1;collapsible=0;recursiveResize=0;verticalAlign=top;spacingTop=36;outlineConnect=0;" parent="1" vertex="1">
          <mxGeometry x="95" y="382" width="20" height="300" as="geometry" />
        </mxCell>
        <mxCell id="cCGou0kW3pRUITbVrl2Z-2" value="User" style="text;html=1;align=center;verticalAlign=middle;resizable=0;points=[];autosize=1;strokeColor=none;fillColor=none;" parent="1" vertex="1">
          <mxGeometry x="80" y="350" width="50" height="30" as="geometry" />
        </mxCell>
        <mxCell id="Art4MpTPrH9QVjUr_xml-1" value="Cancel Subscription" style="html=1;verticalAlign=bottom;endArrow=open;dashed=1;endSize=8;rounded=0;" parent="1" edge="1">
          <mxGeometry x="0.0028" relative="1" as="geometry">
            <mxPoint x="460" y="512" as="sourcePoint" />
            <mxPoint x="105" y="512" as="targetPoint" />
            <Array as="points" />
            <mxPoint as="offset" />
          </mxGeometry>
        </mxCell>
        <mxCell id="fI3QNLdNKD-QZcfWRxiP-1" value="" style="endArrow=block;endFill=1;html=1;edgeStyle=orthogonalEdgeStyle;align=left;verticalAlign=top;rounded=0;" parent="1" edge="1">
          <mxGeometry x="-1" relative="1" as="geometry">
            <mxPoint x="105" y="452" as="sourcePoint" />
            <mxPoint x="464.5" y="452" as="targetPoint" />
            <Array as="points" />
          </mxGeometry>
        </mxCell>
        <mxCell id="fI3QNLdNKD-QZcfWRxiP-2" value="cancelSubscription(subscriptionID, serviceName)" style="edgeLabel;html=1;align=center;verticalAlign=middle;resizable=0;points=[];" parent="fI3QNLdNKD-QZcfWRxiP-1" vertex="1" connectable="0">
          <mxGeometry x="-0.1495" y="-4" relative="1" as="geometry">
            <mxPoint x="31" y="-4" as="offset" />
          </mxGeometry>
        </mxCell>
        <mxCell id="mgv7ch_fplEL9xpQ_CmW-1" value="Cancel Subscriptions" style="text;html=1;align=center;verticalAlign=middle;resizable=0;points=[];autosize=1;strokeColor=none;fillColor=none;" parent="1" vertex="1">
          <mxGeometry x="160" y="352" width="130" height="20" as="geometry" />
        </mxCell>
        <mxCell id="JChQdCJRBVRevaaYqap1-1" value="aBankAccount: BankAccount" style="shape=umlLifeline;perimeter=lifelinePerimeter;whiteSpace=wrap;html=1;container=1;collapsible=0;recursiveResize=0;outlineConnect=0;" vertex="1" parent="1">
          <mxGeometry x="730" y="420" width="100" height="300" as="geometry" />
        </mxCell>
        <mxCell id="1WiSskSD4isf2NS1JOtE-2" value="" style="html=1;points=[];perimeter=orthogonalPerimeter;" vertex="1" parent="JChQdCJRBVRevaaYqap1-1">
          <mxGeometry x="45" y="50" width="10" height="50" as="geometry" />
        </mxCell>
      </root>
    </mxGraphModel>
  </diagram>
</mxfile>
